<?xml version="1.0" encoding="utf-8"?>
<!-- Generator: Adobe Illustrator 16.0.0, SVG Export Plug-In . SVG Version: 6.00 Build 0)  -->
<!DOCTYPE svg PUBLIC "-//W3C//DTD SVG 1.1//EN" "http://www.w3.org/Graphics/SVG/1.1/DTD/svg11.dtd">
<svg version="1.1" id="Layer_1" xmlns="http://www.w3.org/2000/svg" xmlns:xlink="http://www.w3.org/1999/xlink" x="0px" y="0px"
	 width="133px" height="62.869px" viewBox="0 0 133 62.869" style="enable-background:new 0 0 133 62.869;" xml:space="preserve">
<g>
	<polygon style="fill-rule:evenodd;clip-rule:evenodd;" points="11.518,2.934 17.591,2.934 17.591,59.798 11.518,59.798 
		11.518,2.934 	"/>
	<polygon style="fill-rule:evenodd;clip-rule:evenodd;" points="19.504,2.934 21.387,2.934 21.387,59.798 19.504,59.798 
		19.504,2.934 	"/>
	<polygon style="fill-rule:evenodd;clip-rule:evenodd;" points="23.027,2.934 26.396,2.934 26.396,59.798 23.027,59.798 
		23.027,2.934 	"/>
	<polygon style="fill-rule:evenodd;clip-rule:evenodd;" points="29.644,2.934 31.525,2.934 31.525,59.798 29.644,59.798 
		29.644,2.934 	"/>
	<polygon style="fill-rule:evenodd;clip-rule:evenodd;" points="32.344,2.934 33.795,2.934 33.795,59.798 32.344,59.798 
		32.344,2.934 	"/>
	<polygon style="fill-rule:evenodd;clip-rule:evenodd;" points="6.9,2.934 8.782,2.934 8.782,59.798 6.9,59.798 6.9,2.934 	"/>
	<polygon style="fill-rule:evenodd;clip-rule:evenodd;" points="2.749,2.934 6.118,2.934 6.118,59.798 2.749,59.798 2.749,2.934 	
		"/>
	<polygon style="fill-rule:evenodd;clip-rule:evenodd;" points="43.853,2.934 49.926,2.934 49.926,59.798 43.853,59.798 
		43.853,2.934 	"/>
	<polygon style="fill-rule:evenodd;clip-rule:evenodd;" points="51.839,2.934 53.722,2.934 53.722,59.798 51.839,59.798 
		51.839,2.934 	"/>
	<polygon style="fill-rule:evenodd;clip-rule:evenodd;" points="55.362,2.934 58.73,2.934 58.73,59.798 55.362,59.798 55.362,2.934 
			"/>
	<polygon style="fill-rule:evenodd;clip-rule:evenodd;" points="61.978,2.934 63.861,2.934 63.861,59.798 61.978,59.798 
		61.978,2.934 	"/>
	<polygon style="fill-rule:evenodd;clip-rule:evenodd;" points="64.679,2.934 66.129,2.934 66.129,59.798 64.679,59.798 
		64.679,2.934 	"/>
	<polygon style="fill-rule:evenodd;clip-rule:evenodd;" points="39.235,2.934 41.117,2.934 41.117,59.798 39.235,59.798 
		39.235,2.934 	"/>
	<polygon style="fill-rule:evenodd;clip-rule:evenodd;" points="35.084,2.934 38.453,2.934 38.453,59.798 35.084,59.798 
		35.084,2.934 	"/>
	<polygon style="fill-rule:evenodd;clip-rule:evenodd;" points="68.515,2.934 71.885,2.934 71.885,59.798 68.515,59.798 
		68.515,2.934 	"/>
	<polygon style="fill-rule:evenodd;clip-rule:evenodd;" points="75.132,2.934 77.014,2.934 77.014,59.798 75.132,59.798 
		75.132,2.934 	"/>
	<polygon style="fill-rule:evenodd;clip-rule:evenodd;" points="77.832,2.934 79.282,2.934 79.282,59.798 77.832,59.798 
		77.832,2.934 	"/>
	<polygon style="fill-rule:evenodd;clip-rule:evenodd;" points="84.723,2.934 86.604,2.934 86.604,59.798 84.723,59.798 
		84.723,2.934 	"/>
	<polygon style="fill-rule:evenodd;clip-rule:evenodd;" points="80.572,2.934 83.941,2.934 83.941,59.798 80.572,59.798 
		80.572,2.934 	"/>
	<polygon style="fill-rule:evenodd;clip-rule:evenodd;" points="89.106,2.934 90.988,2.934 90.988,59.798 89.106,59.798 
		89.106,2.934 	"/>
	<polygon style="fill-rule:evenodd;clip-rule:evenodd;" points="91.807,2.934 93.258,2.934 93.258,59.798 91.807,59.798 
		91.807,2.934 	"/>
	<polygon style="fill-rule:evenodd;clip-rule:evenodd;" points="98.697,2.934 100.579,2.934 100.579,59.798 98.697,59.798 
		98.697,2.934 	"/>
	<polygon style="fill-rule:evenodd;clip-rule:evenodd;" points="94.548,2.934 97.916,2.934 97.916,59.798 94.548,59.798 
		94.548,2.934 	"/>
	<polygon style="fill-rule:evenodd;clip-rule:evenodd;" points="102.22,2.934 108.293,2.934 108.293,59.798 102.22,59.798 
		102.22,2.934 	"/>
	<polygon style="fill-rule:evenodd;clip-rule:evenodd;" points="110.207,2.934 112.09,2.934 112.09,59.798 110.207,59.798 
		110.207,2.934 	"/>
	<polygon style="fill-rule:evenodd;clip-rule:evenodd;" points="113.729,2.934 117.098,2.934 117.098,59.798 113.729,59.798 
		113.729,2.934 	"/>
	<polygon style="fill-rule:evenodd;clip-rule:evenodd;" points="120.346,2.934 122.228,2.934 122.228,59.798 120.346,59.798 
		120.346,2.934 	"/>
	<polygon style="fill-rule:evenodd;clip-rule:evenodd;" points="123.047,2.934 124.497,2.934 124.497,59.798 123.047,59.798 
		123.047,2.934 	"/>
	<polygon style="fill-rule:evenodd;clip-rule:evenodd;" points="126.883,2.934 130.251,2.934 130.251,59.798 126.883,59.798 
		126.883,2.934 	"/>
	<polygon style="fill-rule:evenodd;clip-rule:evenodd;fill:#FFFFFF;" points="9.62,59.927 126.025,59.927 126.025,28.055 
		9.62,28.055 9.62,59.927 	"/>
	<path d="M11.813,58.704V29.868h10.82c2.201,0,3.966,0.289,5.302,0.873c1.329,0.584,2.369,1.485,3.121,2.699
		c0.758,1.207,1.134,2.476,1.134,3.805c0,1.229-0.335,2.389-1,3.477c-0.664,1.088-1.671,1.968-3.021,2.64
		c1.745,0.51,3.087,1.382,4.02,2.617c0.94,1.228,1.41,2.686,1.41,4.363c0,1.355-0.288,2.609-0.858,3.771
		c-0.571,1.162-1.276,2.056-2.115,2.686c-0.839,0.625-1.893,1.101-3.154,1.423c-1.269,0.322-2.819,0.484-4.658,0.484H11.813
		L11.813,58.704z M15.64,41.989h6.235c1.691,0,2.906-0.113,3.638-0.336c0.973-0.287,1.705-0.771,2.194-1.442
		c0.49-0.672,0.739-1.511,0.739-2.524c0-0.959-0.229-1.804-0.691-2.53c-0.457-0.729-1.114-1.233-1.967-1.504
		c-0.853-0.268-2.315-0.4-4.383-0.4H15.64V41.989L15.64,41.989z M15.64,55.321h7.182c1.235,0,2.101-0.048,2.604-0.142
		c0.873-0.155,1.611-0.416,2.202-0.785c0.59-0.37,1.074-0.906,1.457-1.61c0.382-0.706,0.57-1.519,0.57-2.437
		c0-1.081-0.275-2.014-0.832-2.813c-0.551-0.798-1.316-1.356-2.296-1.679c-0.974-0.32-2.383-0.481-4.215-0.481H15.64V55.321
		L15.64,55.321z"/>
	<path d="M37.064,48.253c0-3.859,1.074-6.719,3.229-8.578c1.792-1.543,3.987-2.314,6.571-2.314c2.866,0,5.215,0.939,7.041,2.817
		c1.819,1.873,2.732,4.471,2.732,7.779c0,2.685-0.403,4.792-1.208,6.329c-0.806,1.538-1.98,2.732-3.524,3.585
		c-1.537,0.853-3.222,1.275-5.041,1.275c-2.926,0-5.289-0.934-7.095-2.806C37.964,54.469,37.064,51.769,37.064,48.253L37.064,48.253
		z M40.689,48.26c0,2.672,0.584,4.671,1.751,5.993c1.174,1.33,2.645,1.994,4.423,1.994c1.758,0,3.222-0.664,4.396-2
		c1.168-1.337,1.752-3.37,1.752-6.103c0-2.576-0.59-4.529-1.765-5.853c-1.175-1.329-2.638-1.994-4.383-1.994
		c-1.778,0-3.249,0.658-4.423,1.981C41.273,43.6,40.689,45.594,40.689,48.26L40.689,48.26z"/>
	<polygon points="60.711,58.704 60.711,29.868 64.254,29.868 64.254,58.704 60.711,58.704 	"/>
	<path d="M83.995,51.937l3.664,0.483c-0.569,2.128-1.638,3.786-3.194,4.961c-1.558,1.175-3.544,1.766-5.967,1.766
		c-3.048,0-5.464-0.939-7.249-2.82c-1.786-1.872-2.679-4.51-2.679-7.898c0-3.505,0.899-6.229,2.705-8.162
		c1.806-1.94,4.148-2.905,7.027-2.905c2.785,0,5.061,0.945,6.826,2.844c1.766,1.9,2.651,4.57,2.651,8.014
		c0,0.21-0.007,0.525-0.02,0.939H72.195c0.134,2.291,0.779,4.048,1.946,5.264c1.161,1.214,2.617,1.826,4.356,1.826
		c1.295,0,2.403-0.342,3.315-1.028C82.732,54.534,83.457,53.44,83.995,51.937L83.995,51.937z M72.396,46.259h11.639
		c-0.155-1.759-0.604-3.073-1.336-3.953c-1.12-1.362-2.584-2.047-4.377-2.047c-1.623,0-2.985,0.543-4.094,1.63
		C73.128,42.977,72.518,44.433,72.396,46.259L72.396,46.259z"/>
	<path d="M99.829,55.541l0.482,3.128c-0.993,0.209-1.887,0.315-2.665,0.315c-1.281,0-2.275-0.2-2.986-0.609
		c-0.705-0.41-1.201-0.939-1.49-1.604c-0.288-0.665-0.429-2.062-0.429-4.188V40.54h-2.618v-2.737h2.618v-5.17l3.544-2.127v7.297
		h3.544v2.737h-3.544v12.244c0,1.014,0.06,1.663,0.188,1.953c0.12,0.287,0.322,0.517,0.604,0.69
		c0.282,0.168,0.686,0.255,1.208,0.255C98.674,55.683,99.191,55.635,99.829,55.541L99.829,55.541z"/>
	<path d="M101.996,48.253c0-3.859,1.074-6.719,3.229-8.578c1.792-1.543,3.988-2.314,6.571-2.314c2.866,0,5.216,0.939,7.041,2.817
		c1.819,1.873,2.732,4.471,2.732,7.779c0,2.685-0.403,4.792-1.209,6.329c-0.806,1.538-1.979,2.732-3.523,3.585
		c-1.537,0.853-3.222,1.275-5.041,1.275c-2.927,0-5.289-0.934-7.094-2.806C102.896,54.469,101.996,51.769,101.996,48.253
		L101.996,48.253z M105.622,48.26c0,2.672,0.583,4.671,1.751,5.993c1.175,1.33,2.645,1.994,4.423,1.994c1.759,0,3.222-0.664,4.396-2
		c1.168-1.337,1.752-3.37,1.752-6.103c0-2.576-0.591-4.529-1.766-5.853c-1.175-1.329-2.637-1.994-4.383-1.994
		c-1.778,0-3.248,0.658-4.423,1.981C106.205,43.6,105.622,45.594,105.622,48.26L105.622,48.26z"/>
</g>
</svg>
