
<svg version="1.1" xmlns="http://www.w3.org/2000/svg" xmlns:xlink="http://www.w3.org/1999/xlink" viewBox="0 0 172 172"><g fill="none" fill-rule="nonzero" stroke="none" stroke-width="1" stroke-linecap="butt" stroke-linejoin="miter" stroke-miterlimit="10" stroke-dasharray="" stroke-dashoffset="0" font-family="none" font-weight="none" font-size="none" text-anchor="none" style="mix-blend-mode: normal"><path d="M0,172v-172h172v172z" fill="none"></path><g><path d="M161.25,125.41667c0,7.91558 -6.41775,14.33333 -14.33333,14.33333h-121.83333c-7.91558,0 -14.33333,-6.41775 -14.33333,-14.33333v-78.83333c0,-7.91558 6.41775,-14.33333 14.33333,-14.33333h121.83333c7.91558,0 14.33333,6.41775 14.33333,14.33333z" fill="#112492"></path><path d="M107.5,50.16667c-19.7902,0 -35.83333,16.04313 -35.83333,35.83333c0,19.7902 16.04313,35.83333 35.83333,35.83333c19.7902,0 35.83333,-16.04313 35.83333,-35.83333c0,-19.7902 -16.04313,-35.83333 -35.83333,-35.83333z" fill="#ffc107"></path><path d="M78.8835,107.5c-1.66267,-2.21092 -3.09242,-4.601 -4.214,-7.16667h19.08125c0.99617,-2.279 1.77733,-4.67267 2.28258,-7.16667h-23.64283c-0.473,-2.31483 -0.72383,-4.7085 -0.72383,-7.16667h25.08333c0,-2.45817 -0.25083,-4.85183 -0.72025,-7.16667h-23.64283c0.50883,-2.494 1.28642,-4.88767 2.28258,-7.16667h19.08125c-1.12158,-2.56567 -2.54775,-4.95575 -4.214,-7.16667h-10.65325c1.56592,-2.07833 3.3325,-4.0205 5.30692,-5.71542c-6.26367,-5.36067 -14.3835,-8.61792 -23.27375,-8.61792c-19.79075,0 -35.83333,16.04258 -35.83333,35.83333c0,19.79075 16.04258,35.83333 35.83333,35.83333c11.71392,0 22.0805,-5.64375 28.6165,-14.33333z" fill="#ff3d00"></path></g></g></svg>