
<svg version="1.1" xmlns="http://www.w3.org/2000/svg" xmlns:xlink="http://www.w3.org/1999/xlink" viewBox="0 0 172 172"><g fill="none" fill-rule="nonzero" stroke="none" stroke-width="1" stroke-linecap="butt" stroke-linejoin="miter" stroke-miterlimit="10" stroke-dasharray="" stroke-dashoffset="0" font-family="none" font-weight="none" font-size="none" text-anchor="none" style="mix-blend-mode: normal"><path d="M0,172v-172h172v172z" fill="none"></path><g><path d="M161.25,125.41667c0,7.912 -6.41775,14.33333 -14.33333,14.33333h-121.83333c-7.91558,0 -14.33333,-6.42133 -14.33333,-14.33333v-78.83333c0,-7.91917 6.41775,-14.33333 14.33333,-14.33333h121.83333c7.91558,0 14.33333,6.41417 14.33333,14.33333z" fill="#9f07a9"></path><path d="M57.33333,75.25c0,1.98158 -1.60175,3.58333 -3.58333,3.58333h-17.91667c-1.98158,0 -3.58333,-1.60175 -3.58333,-3.58333v-14.33333c0,-1.98158 1.60175,-3.58333 3.58333,-3.58333h17.91667c1.98158,0 3.58333,1.60175 3.58333,3.58333zM53.75,93.16667h-21.5v7.16667h21.5zM82.41667,111.08333h-50.16667v7.16667h50.16667zM82.41667,93.16667h-21.5v7.16667h21.5zM111.08333,93.16667h-21.5v7.16667h21.5zM139.75,93.16667h-21.5v7.16667h21.5z" fill="#ffc107"></path><path d="M71.66667,57.33333h68.08333v14.33333h-68.08333z" fill="#9fa8da"></path></g></g></svg>