<svg xmlns="http://www.w3.org/2000/svg" viewBox="0 0 80 80"><path fill="#f78f8f" d="M14,49.5c-0.827,0-1.5-0.673-1.5-1.5V8c0-1.93,1.57-3.5,3.5-3.5h58c1.93,0,3.5,1.57,3.5,3.5v38 c0,1.93-1.57,3.5-3.5,3.5H14z"></path><path fill="#c74343" d="M74,5c1.654,0,3,1.346,3,3v38c0,1.654-1.346,3-3,3H14c-0.551,0-1-0.449-1-1V8c0-1.654,1.346-3,3-3 H74 M74,4H16c-2.209,0-4,1.791-4,4v40c0,1.105,0.895,2,2,2h60c2.209,0,4-1.791,4-4V8C78,5.791,76.209,4,74,4L74,4z"></path><path fill="#fff" d="M18 24H72V28H18z"></path><path fill="#36404d" d="M12 12H78V20H12z"></path><path fill="#8bb7f0" d="M6,75.5c-1.93,0-3.5-1.57-3.5-3.5V34c0-1.93,1.57-3.5,3.5-3.5h58c1.93,0,3.5,1.57,3.5,3.5v38 c0,1.93-1.57,3.5-3.5,3.5H6z"></path><path fill="#4e7ab5" d="M64,31c1.654,0,3,1.346,3,3v38c0,1.654-1.346,3-3,3H6c-1.654,0-3-1.346-3-3V34c0-1.654,1.346-3,3-3 H64 M64,30H6c-2.209,0-4,1.791-4,4v38c0,2.209,1.791,4,4,4h58c2.209,0,4-1.791,4-4V34C68,31.791,66.209,30,64,30L64,30z"></path><path fill="#ffeea3" d="M10.5 40.5H23.5V49.5H10.5z"></path><path fill="#ba9b48" d="M23,41v8H11v-8H23 M24,40H10v10h14V40L24,40z"></path><path fill="#ffeea3" d="M10 56H18V60H10zM24 56H32V60H24zM38 56H46V60H38zM52 56H60V60H52z"></path><g><path fill="#e1ebf2" d="M32 38H60V46H32z"></path></g><path fill="#ffeea3" d="M10 64H40V68H10z"></path></svg>