<svg version="1.1" id="Layer_1" xmlns="http://www.w3.org/2000/svg" xmlns:xlink="http://www.w3.org/1999/xlink" x="0px" y="0px"
	viewBox="0 0 836 167" style="enable-background:new 0 0 836 167;" xml:space="preserve">
<g>
	<path style="fill:none;" d="M253.334,45.547h-0.258l0.127,0.128C253.247,45.632,253.291,45.59,253.334,45.547z"/>
	<path style="fill:none;" d="M253.711,121.58L253.711,121.58l-15.609,0.217h15.886c-0.077-0.072-0.153-0.145-0.229-0.218
		L253.711,121.58z"/>
	<path style="fill:none;" d="M251.322,119.086c-0.161-0.177-0.315-0.357-0.473-0.535c-0.394-0.447-0.785-0.896-1.161-1.352
		c-0.322-0.389-0.631-0.784-0.939-1.18c-0.195-0.251-0.394-0.5-0.584-0.754c-0.468-0.62-0.917-1.25-1.354-1.885
		c-0.021-0.031-0.044-0.062-0.064-0.094c-5.42-7.922-8.462-16.976-9.128-26.176l0.482,34.686l15.608-0.217
		C252.878,120.771,252.09,119.934,251.322,119.086z"/>
	<polygon style="fill:none;" points="291.156,83.626 328.46,83.626 328.46,75.37 328.046,45.547 327.66,45.547 290.887,83.356 	"/>
	<polygon style="fill:none;" points="328.46,45.547 328.046,45.547 328.46,75.37 	"/>
	<path style="fill:none;" d="M253.711,121.58l0.047-0.001c-0.008-0.008-0.017-0.015-0.024-0.022L253.711,121.58z"/>
	<rect x="472.055" y="30.318" style="fill:none;" width="53.305" height="0.001"/>
	<polygon style="fill:none;" points="328.575,83.626 328.463,75.546 328.463,83.626 	"/>
	<path style="fill:none;" d="M290.819,136.545h0.057v-0.002C290.857,136.543,290.839,136.545,290.819,136.545z"/>
	<polygon style="fill:none;" points="328.046,45.546 328.04,45.155 327.661,45.546 	"/>
	<polygon style="fill:none;" points="328.46,83.626 328.463,83.626 328.463,75.546 328.46,75.37 	"/>
	<path style="fill:none;" d="M237.619,87.111c-0.094-1.289-0.155-2.578-0.155-3.869v38.555h0.638L237.619,87.111z"/>
	<path style="fill:none;" d="M238.102,121.797h-0.638v14.748h53.253c-13.234-0.013-26.456-4.938-36.729-14.748H238.102z"/>
	<rect x="327.66" y="45.546" style="fill:none;" width="0.386" height="0.001"/>
	<polygon style="fill:none;" points="237.464,83.242 237.464,83.236 237.464,75.951 237.463,75.916 237.463,121.797 
		237.464,121.797 	"/>
	<polygon style="fill:none;" points="290.819,136.545 290.717,136.545 237.464,136.545 237.464,121.797 237.463,121.797 
		237.463,136.546 290.876,136.546 290.876,136.545 	"/>
	<polygon style="fill:none;" points="328.46,45.547 328.46,75.37 328.463,75.546 328.463,45.546 328.046,45.546 328.046,45.547 	"/>
	<path style="fill:none;" d="M800.85,31.817c1.346,0.732,2.404,1.785,3.176,3.152c0.766,1.36,1.148,2.783,1.152,4.268v-8.52h-8.547
		C798.098,30.718,799.506,31.085,800.85,31.817z"/>
	<rect x="84.128" y="30.319" style="fill:none;" width="0" height="0.001"/>
	<path style="fill:none;" d="M798.17,37.436c0-0.251-0.07-0.478-0.215-0.673c-0.148-0.199-0.352-0.34-0.621-0.424
		c-0.266-0.086-0.928-0.129-1.977-0.129h-0.746v2.477h0.746c1.064,0,1.725-0.04,1.98-0.122c0.26-0.082,0.461-0.226,0.607-0.43
		C798.098,37.93,798.17,37.698,798.17,37.436z"/>
	<path style="fill:none;" d="M792.412,31.817c1.346-0.732,2.756-1.1,4.219-1.1h-8.547v8.52c0.006-1.484,0.385-2.907,1.152-4.268
		C790.008,33.603,791.064,32.55,792.412,31.817z"/>
	<path style="fill:none;" d="M789.211,43.525c-0.748-1.34-1.121-2.751-1.127-4.228v8.52h8.547c-1.488,0-2.908-0.379-4.26-1.133
		C791.021,45.931,789.969,44.876,789.211,43.525z"/>
	<polygon style="fill:none;" points="84.129,30.319 84.129,30.318 30.822,30.318 30.822,30.319 84.128,30.319 	"/>
	<polygon style="fill:none;" points="742.885,30.719 782.494,30.719 782.494,70.398 782.494,110.08 782.496,110.08 782.496,30.717 
		742.885,30.717 	"/>
	<path style="fill:none;" d="M742.885,110.076v0.004h39.609V70.398C782.494,92.291,764.768,110.037,742.885,110.076z"/>
	<rect x="84.128" y="136.931" style="fill:none;" width="0" height="0.001"/>
	<path style="fill:none;" d="M800.033,33.274c-1.088-0.588-2.217-0.883-3.391-0.883c-1.176,0-2.303,0.295-3.383,0.883
		c-1.078,0.587-1.93,1.432-2.553,2.533c-0.617,1.1-0.928,2.254-0.928,3.459c0,1.199,0.301,2.342,0.908,3.426
		c0.605,1.088,1.455,1.938,2.539,2.547s2.225,0.913,3.416,0.913c1.199,0,2.34-0.304,3.422-0.913c1.08-0.609,1.928-1.459,2.537-2.547
		c0.611-1.084,0.916-2.227,0.916-3.426c0-1.205-0.311-2.359-0.934-3.459C801.967,34.706,801.111,33.861,800.033,33.274z
		 M798.393,43.845l-0.756-1.476c-0.516-0.989-0.938-1.612-1.273-1.869c-0.334-0.255-0.762-0.384-1.271-0.384h-0.48v3.729h-1.844
		v-9.076h1.844c1.725,0,2.693,0.009,2.904,0.021c0.607,0.055,1.08,0.176,1.42,0.363c0.34,0.193,0.619,0.481,0.85,0.873
		c0.225,0.389,0.34,0.822,0.34,1.299c0,0.654-0.215,1.214-0.645,1.681c-0.428,0.464-1.025,0.753-1.799,0.864
		c0.273,0.104,0.486,0.217,0.635,0.34s0.354,0.355,0.613,0.699c0.066,0.089,0.289,0.457,0.67,1.103l1.072,1.833H798.393z"/>
	<path style="fill:none;" d="M804.049,43.525c-0.756,1.351-1.807,2.405-3.162,3.159c-1.348,0.754-2.766,1.133-4.256,1.133h8.547
		v-8.52C805.174,40.775,804.801,42.186,804.049,43.525z"/>
	<polygon style="fill:none;" points="788.084,47.817 788.084,39.298 788.084,39.237 788.084,30.718 796.631,30.718 805.178,30.718 
		805.178,30.717 788.078,30.717 788.078,47.817 805.178,47.817 805.178,47.817 796.631,47.817 	"/>
	<path style="fill:none;" d="M137.431,83.588V30.319H84.129l0,0C113.557,30.321,137.41,54.164,137.431,83.588z"/>
	<path style="fill:none;" d="M237.464,75.951v7.285c0-0.871,0.022-1.742,0.064-2.613L237.464,75.951z"/>
	<polygon style="fill:none;" points="445.406,83.625 445.406,30.319 445.404,30.319 445.404,83.626 472.055,83.626 472.055,83.625 	
		"/>
	<polygon style="fill:none;" points="667.764,136.532 563.086,136.532 615.424,30.718 563.08,30.718 563.08,136.534 
		667.768,136.534 667.768,30.718 615.424,30.718 	"/>
	<polygon style="fill:none;" points="552.012,83.625 525.359,83.625 525.359,83.626 552.014,83.626 552.014,30.319 552.012,30.319 	
		"/>
	<polygon style="fill:none;" points="137.431,83.588 137.431,83.664 137.431,136.932 137.432,136.932 137.432,30.319 
		137.431,30.319 	"/>
	<path style="fill:none;" d="M84.129,136.932L84.129,136.932h53.302V83.664C137.41,113.089,113.557,136.931,84.129,136.932z"/>
	<path style="fill:none;" d="M782.494,70.398v-39.68h-39.609v0.001C764.768,30.759,782.494,48.508,782.494,70.398z"/>
	<path style="fill:#F38230;" d="M209.119,56.896V30.319h-26.652C197.161,30.319,209.077,42.21,209.119,56.896z"/>
	<path style="fill:#F38230;" d="M182.467,30.319h-26.652v26.652C155.814,42.251,167.745,30.319,182.467,30.319z"/>
	<path style="fill:#F38230;" d="M155.813,30.318L155.813,30.318v53.307v0.001v53.306h0.001h53.305h0.002V30.318H155.813z
		 M209.119,56.896v0.154c-0.042,14.672-11.937,26.554-26.613,26.575h-0.077c-14.704-0.021-26.614-11.944-26.614-26.653V30.319
		h26.652h26.652V56.896z"/>
	<path style="fill:#4EB662;" d="M798.93,40.909c-0.26-0.344-0.465-0.576-0.613-0.699s-0.361-0.235-0.635-0.34
		c0.773-0.111,1.371-0.4,1.799-0.864c0.43-0.467,0.645-1.026,0.645-1.681c0-0.477-0.115-0.91-0.34-1.299
		c-0.23-0.392-0.51-0.68-0.85-0.873c-0.34-0.188-0.812-0.309-1.42-0.363c-0.211-0.013-1.18-0.021-2.904-0.021h-1.844v9.076h1.844
		v-3.729h0.48c0.51,0,0.938,0.129,1.271,0.384c0.336,0.257,0.758,0.88,1.273,1.869l0.756,1.476h2.279l-1.072-1.833
		C799.219,41.366,798.996,40.998,798.93,40.909z M797.338,38.564c-0.256,0.082-0.916,0.122-1.98,0.122h-0.746V36.21h0.746
		c1.049,0,1.711,0.043,1.977,0.129c0.27,0.084,0.473,0.225,0.621,0.424c0.145,0.195,0.215,0.422,0.215,0.673
		c0,0.263-0.072,0.494-0.225,0.699C797.799,38.339,797.598,38.482,797.338,38.564z"/>
	<path style="fill:#4EB662;" d="M800.85,31.817c-1.344-0.732-2.752-1.1-4.219-1.1c-1.463,0-2.873,0.367-4.219,1.1
		c-1.348,0.732-2.404,1.785-3.176,3.152c-0.768,1.36-1.146,2.783-1.152,4.268v0.061c0.006,1.477,0.379,2.888,1.127,4.228
		c0.758,1.351,1.811,2.405,3.16,3.159c1.352,0.754,2.771,1.133,4.26,1.133c1.49,0,2.908-0.379,4.256-1.133
		c1.355-0.754,2.406-1.809,3.162-3.159c0.752-1.34,1.125-2.75,1.129-4.228v-0.061c-0.004-1.484-0.387-2.907-1.152-4.268
		C803.254,33.603,802.195,32.55,800.85,31.817z M802.602,42.692c-0.609,1.088-1.457,1.938-2.537,2.547
		c-1.082,0.609-2.223,0.913-3.422,0.913c-1.191,0-2.332-0.304-3.416-0.913s-1.934-1.459-2.539-2.547
		c-0.607-1.084-0.908-2.227-0.908-3.426c0-1.205,0.311-2.359,0.928-3.459c0.623-1.102,1.475-1.946,2.553-2.533
		c1.08-0.588,2.207-0.883,3.383-0.883c1.174,0,2.303,0.295,3.391,0.883c1.078,0.587,1.934,1.432,2.551,2.533
		c0.623,1.1,0.934,2.254,0.934,3.459C803.518,40.466,803.213,41.608,802.602,42.692z"/>
	<path style="fill:#F8C734;" d="M84.129,30.319v106.612c29.428-0.001,53.281-23.843,53.302-53.268v-0.076
		C137.41,54.164,113.557,30.321,84.129,30.319z"/>
	<rect x="84.128" y="30.319" style="fill:#F8C734;" width="0" height="106.612"/>
	<path style="fill:#4EB662;" d="M742.885,30.72v79.356c21.883-0.039,39.609-17.785,39.609-39.678
		C782.494,48.508,764.768,30.759,742.885,30.72z"/>
	<path style="fill:#E5472F;" d="M155.814,56.972c0,14.709,11.91,26.632,26.614,26.653h0.077
		c14.677-0.021,26.571-11.903,26.613-26.575v-0.154c-0.042-14.686-11.958-26.576-26.652-26.576
		C167.745,30.319,155.814,42.251,155.814,56.972z"/>
	<path style="fill:#F8C734;" d="M30.822,83.626v53.306h53.305C54.688,136.932,30.822,113.068,30.822,83.626z"/>
	<path style="fill:#F8C734;" d="M84.127,30.319L84.127,30.319L84.127,30.319H30.822v53.307
		C30.822,54.185,54.688,30.319,84.127,30.319z"/>
	<polygon style="fill:#F8C734;" points="84.127,136.932 84.128,136.932 84.128,136.932 	"/>
	<path style="fill:#F09C33;" d="M84.128,30.319L84.128,30.319c-29.44,0-53.306,23.865-53.306,53.307
		c0,29.442,23.865,53.306,53.305,53.306h0.001V30.319z"/>
	<path style="fill:#EB2630;" d="M250.85,118.551c-0.396-0.446-0.783-0.896-1.161-1.352
		C250.064,117.655,250.456,118.104,250.85,118.551z"/>
	<path style="fill:#EB2630;" d="M253.077,120.932c-0.604-0.604-1.187-1.221-1.755-1.846c0.768,0.848,1.556,1.685,2.388,2.494h0.001
		l0.022-0.023C253.516,121.346,253.292,121.146,253.077,120.932z"/>
	<path style="fill:#EB2630;" d="M246.812,113.381c-0.021-0.031-0.043-0.062-0.064-0.094
		C246.768,113.318,246.79,113.35,246.812,113.381z"/>
	<path style="fill:#EB2630;" d="M248.749,116.02c-0.196-0.25-0.394-0.5-0.584-0.754C248.355,115.52,248.554,115.769,248.749,116.02z
		"/>
	<path style="fill:#EB2630;" d="M253.335,45.546C253.335,45.546,253.334,45.546,253.335,45.546
		c-0.044,0.044-0.088,0.086-0.132,0.129l37.684,37.682l36.773-37.81l0,0l0.001-0.001l0.379-0.391v-0.004
		C307.161,24.847,273.917,25.104,253.335,45.546z"/>
	<path style="fill:#994F9C;" d="M248.165,115.266c-0.465-0.621-0.919-1.248-1.354-1.885
		C247.248,114.016,247.697,114.646,248.165,115.266z"/>
	<path style="fill:#994F9C;" d="M251.322,119.086c-0.16-0.178-0.315-0.357-0.473-0.535
		C251.007,118.729,251.161,118.909,251.322,119.086z"/>
	<path style="fill:#994F9C;" d="M237.578,84.174l-0.002-0.13l-0.048-3.421c-0.042,0.871-0.064,1.742-0.064,2.613v0.006
		c0,1.291,0.062,2.58,0.155,3.869L237.578,84.174z"/>
	<path style="fill:#994F9C;" d="M249.688,117.199c-0.32-0.39-0.632-0.783-0.939-1.18
		C249.058,116.415,249.366,116.811,249.688,117.199z"/>
	<path style="fill:#994F9C;" d="M237.578,84.174l0.041,2.938c0.666,9.2,3.708,18.254,9.128,26.176
		C240.794,104.527,237.731,94.373,237.578,84.174z"/>
	<path style="fill:#994F9C;" d="M290.887,83.356l-37.153,38.2c0.008,0.008,0.017,0.015,0.024,0.022
		c0.076,0.073,0.152,0.146,0.229,0.218c10.273,9.811,23.495,14.735,36.729,14.748h0.103c0.02,0,0.038-0.002,0.057-0.002v-14.746
		v-0.734V83.626h0.28L290.887,83.356z"/>
	<path style="fill:#994F9C;" d="M253.203,45.675l-0.127-0.128h-0.003c-9.741,9.743-14.922,22.319-15.545,35.076l0.048,3.421
		c-0.172-13.619,4.841-27.306,15.088-37.842C252.84,46.021,253.025,45.853,253.203,45.675z"/>
	<path style="fill:#8C1B20;" d="M246.812,113.381c0.435,0.637,0.889,1.264,1.354,1.885c0.19,0.254,0.388,0.504,0.584,0.754
		c0.308,0.396,0.619,0.79,0.939,1.18c0.378,0.455,0.766,0.905,1.161,1.352c0.157,0.178,0.312,0.357,0.473,0.535
		c0.568,0.625,1.15,1.242,1.755,1.846c0.215,0.215,0.438,0.414,0.656,0.625l37.153-38.2l-37.684-37.682
		c-0.178,0.178-0.363,0.346-0.539,0.527c-10.247,10.536-15.26,24.223-15.088,37.842l0.002,0.13
		c0.153,10.199,3.216,20.354,9.169,29.113C246.769,113.318,246.79,113.35,246.812,113.381z"/>
	<path style="fill:#76509D;" d="M393.364,30.319h-26.65v26.595C366.745,42.22,378.665,30.319,393.364,30.319z"/>
	<path style="fill:#76509D;" d="M420.016,56.934V30.319h-26.651C408.071,30.319,419.994,42.23,420.016,56.934z"/>
	<path style="fill:#76509D;" d="M366.714,30.318L366.714,30.318l26.65,0.001h26.651v26.614v0.077
		c-0.021,14.689-11.923,26.593-26.612,26.614h-0.077c-14.683-0.021-26.581-11.913-26.612-26.595v-0.116V30.318l-0.002,0.001v53.307
		h0.002v53.306h53.302h0.002V30.318H366.714z"/>
	<path style="fill:#382561;" d="M366.714,56.914v0.116c0.031,14.682,11.93,26.573,26.612,26.595h0.077
		c14.689-0.021,26.591-11.925,26.612-26.614v-0.077c-0.021-14.703-11.944-26.614-26.651-26.614
		C378.665,30.319,366.745,42.22,366.714,56.914z"/>
	<rect x="472.055" y="83.626" style="fill:#0DABE0;" width="53.305" height="53.306"/>
	<rect x="498.707" y="56.973" style="fill:#0DABE0;" width="0.001" height="53.305"/>
	<path style="fill:#33BEC7;" d="M742.885,30.72L742.885,30.72l-0.016-0.001C742.875,30.719,742.881,30.72,742.885,30.72z"/>
	<path style="fill:#33BEC7;" d="M689.58,30.318v106.613h0.002h53.303V110.08v-0.004c-0.023,0-0.049,0.002-0.072,0.002
		c-21.914,0-39.682-17.763-39.682-39.68c0-21.896,17.736-39.647,39.623-39.68h0.115h0.016v-0.002v-0.397v-0.001H689.58z"/>
	<path style="fill:#12894C;" d="M742.869,30.719h-0.115c-21.887,0.032-39.623,17.784-39.623,39.68
		c0,21.917,17.768,39.68,39.682,39.68c0.023,0,0.049-0.002,0.072-0.002V30.72C742.881,30.72,742.875,30.719,742.869,30.719z"/>
	<rect x="525.359" y="30.319" style="fill:#0DABE0;" width="26.652" height="53.306"/>
	<rect x="445.406" y="30.319" style="fill:#0DABE0;" width="26.648" height="53.306"/>
	<rect x="472.055" y="30.319" style="fill:#2772B6;" width="53.305" height="53.306"/>
	<polygon style="fill:#76509D;" points="328.463,121.797 328.46,121.797 328.46,136.545 290.876,136.545 290.876,136.546 
		328.463,136.546 	"/>
	<polygon style="fill:#76509D;" points="328.463,120.54 328.46,120.54 328.46,120.93 328.46,120.934 328.46,121.797 
		328.463,121.797 	"/>
	<path style="fill:#76509D;" d="M327.553,121.797h0.907v-0.863C328.163,121.23,327.854,121.508,327.553,121.797z"/>
	<polygon style="fill:#76509D;" points="328.46,120.93 328.46,120.54 328.076,120.545 	"/>
	<g>
		<polygon style="fill:#76509D;" points="340.35,83.626 329.091,83.626 328.575,83.626 328.463,83.626 328.46,83.626 
			291.156,83.626 328.076,120.545 328.46,120.54 328.463,120.54 328.463,121.797 328.463,136.546 290.876,136.546 290.876,136.62 
			340.35,136.62 340.351,136.62 340.351,83.626 		"/>
		<path style="fill:#76509D;" d="M328.46,121.797h-0.907c-10.261,9.797-23.461,14.721-36.677,14.746v0.002h37.584V121.797z"/>
	</g>
	<path style="fill:#46245F;" d="M328.46,120.93l-37.304-37.304h-0.28v38.171v0.119v14.627c13.168-0.025,27.667-4.802,37.474-15.495"
		/>
	<polygon style="fill:#0DABE0;" points="667.764,136.532 615.4,135.96 641.465,83.627 667.764,136.532 615.424,30.718 
		563.086,136.532 	"/>
	<polygon style="fill:#33BEC7;" points="615.4,135.96 667.764,136.532 641.465,83.627 	"/>
</g>
</svg>
