<?xml version="1.0" encoding="utf-8"?>
<!-- Generator: Adobe Illustrator 16.0.0, SVG Export Plug-In . SVG Version: 6.00 Build 0)  -->
<!DOCTYPE svg PUBLIC "-//W3C//DTD SVG 1.1//EN" "http://www.w3.org/Graphics/SVG/1.1/DTD/svg11.dtd">
<svg version="1.1" id="Layer_1" xmlns="http://www.w3.org/2000/svg" xmlns:xlink="http://www.w3.org/1999/xlink" x="0px" y="0px"
	 width="667px" height="153px" viewBox="177.5 172.5 667 153" style="enable-background:new 177.5 172.5 667 153;"
	 xml:space="preserve">
<title>g2apay_logo_basic_for_light_bckg</title>
<path style="fill:#FFFFFF;" d="M462.935,257.401l31.358-0.003c11.659,0,21.111-9.452,21.111-21.111
	c0-11.66-9.452-21.111-21.111-21.111l-37.318,0.006c-8.23,0-14.902,6.672-14.902,14.902l51.134-0.001
	c3.4-0.028,6.209,2.648,6.347,6.045c0.093,3.425-2.606,6.277-6.032,6.371c-0.054,0.001-0.109,0.002-0.164,0.002l-32.596,0.001
	c-10.973,0-19.869,8.895-19.868,19.87v22.353h55.736l7.908-14.901h-48.051v-5.975C456.486,260.288,459.373,257.401,462.935,257.401z
	"/>
<path style="fill:#FFFFFF;" d="M388.935,230.116l40.264-0.031v-14.902l-41.212,0.03c-19.186,0-34.739,15.553-34.739,34.739
	s15.554,34.74,34.739,34.74l0,0l41.212,0.034v-42.223l-44.707,0.001v14.902h29.114v12.418l-24.671-0.037
	c-10.955-0.001-19.835-8.882-19.834-19.836S377.98,230.116,388.935,230.116L388.935,230.116z"/>
<path style="fill:#FFFFFF;" d="M566.436,223.195c-1.148-2.258-2.782-4.234-4.783-5.788c-2.343-1.742-5.193-2.666-8.113-2.63
	c-2.853-0.036-5.635,0.891-7.896,2.63c-2.002,1.553-3.636,3.53-4.783,5.788c-13.025,24.812-32.529,61.531-32.529,61.531h17.798
	l27.409-52.511l12.881,24.679h-19.832l6.992,13.351h19.809l7.56,14.481h17.798C598.746,284.726,579.46,248.007,566.436,223.195z"/>
<polygon style="fill:#FFFFFF;" points="817.493,215.227 796.084,245.405 774.678,215.227 755.672,215.227 788.088,259.903 
	788.088,284.715 804.083,284.715 804.083,259.903 836.499,215.227 "/>
<path style="fill:#FFFFFF;" d="M671.748,215.185l-47.463,0.005v14.899l46.775,0c3.399-0.028,6.208,2.646,6.345,6.043
	c0.094,3.424-2.606,6.275-6.03,6.369c-0.054,0.002-0.108,0.002-0.163,0.002l-27.513,0.001c-10.97,0-19.861,8.894-19.861,19.862
	v22.348h15.588v-20.871c0-3.56,2.886-6.445,6.445-6.445l25.877-0.003c11.656,0,21.105-9.449,21.105-21.105
	S683.404,215.185,671.748,215.185L671.748,215.185L671.748,215.185z"/>
<path style="fill:#FFFFFF;" d="M741.79,223.195c-1.148-2.258-2.782-4.234-4.783-5.788c-2.343-1.742-5.193-2.666-8.113-2.63
	c-2.854-0.036-5.635,0.891-7.896,2.63c-2.001,1.553-3.634,3.53-4.782,5.788c-13.025,24.812-32.529,61.531-32.529,61.531h17.799
	l27.409-52.511l12.881,24.679h-19.832l6.992,13.351h19.809l7.56,14.481h17.798C774.101,284.726,754.814,248.007,741.79,223.195z"/>
<polygon style="fill:#FFFFFF;" points="256.239,278.035 230.579,252.373 256.239,314.966 318.832,252.373 "/>
<polygon style="fill:#FFFFFF;" points="252.857,225.187 189.481,251.168 252.857,314.546 226.875,251.168 "/>
<polygon style="fill:#FFFFFF;" points="253.562,184.824 190.55,247.836 253.562,222.004 279.397,247.836 "/>
<polygon style="fill:#FFFFFF;" points="320.806,249.189 256.211,184.597 282.694,249.189 256.211,275.671 "/>
</svg>
