<svg version="1.1" xmlns="http://www.w3.org/2000/svg" xmlns:xlink="http://www.w3.org/1999/xlink" viewBox="0 0 172 172">
<g fill="#70ff96"><path d="M71.66667,14.33333c-5.934,0 -10.75,4.816 -10.75,10.75v4.99707c-18.54017,4.78017 -32.25,21.55543 -32.25,41.58626v43l-14.33333,14.33333v7.16667h44.98763c-1.2255,2.11417 -1.98763,4.54367 -1.98763,7.16667c0,7.91917 6.41417,14.33333 14.33333,14.33333c2.451,0 4.71891,-0.66751 6.73275,-1.74968c-4.28567,-8.03383 -6.73275,-17.19182 -6.73275,-26.91699c0,-21.20617 11.5455,-39.68127 28.66667,-49.59277v0.014c4.43617,-2.58 9.245,-4.54624 14.33333,-5.86491v-1.88965c0,-20.03083 -13.70983,-36.8061 -32.25,-41.58626v-4.99707c0,-5.934 -4.816,-10.75 -10.75,-10.75zM129,86c-23.65,0 -43,19.35 -43,43c0,23.65 19.35,43 43,43c23.65,0 43,-19.35 43,-43c0,-23.65 -19.35,-43 -43,-43zM121.83333,107.5h14.33333v14.33333h14.33333v14.33333h-14.33333v14.33333h-14.33333v-14.33333h-14.33333v-14.33333h14.33333z"></path></g></svg>