<?xml version="1.0" encoding="utf-8"?>
<!-- Generator: Adobe Illustrator 16.0.0, SVG Export Plug-In . SVG Version: 6.00 Build 0)  -->
<!DOCTYPE svg PUBLIC "-//W3C//DTD SVG 1.1//EN" "http://www.w3.org/Graphics/SVG/1.1/DTD/svg11.dtd">
<svg version="1.1" id="Camada_1" xmlns="http://www.w3.org/2000/svg" xmlns:xlink="http://www.w3.org/1999/xlink" x="0px" y="0px"
	 width="919.531px" height="230.469px" viewBox="0 0 919.531 230.469" style="enable-background:new 0 0 919.531 230.469;"
	 xml:space="preserve">
<path style="fill-rule:evenodd;clip-rule:evenodd;fill:#241F20;" d="M221.781,173.778c9.807-29.786,19.143-60.01,26.191-91.186
	c5.499,0,11.775,0.132,17.272,0.132l-2.077,11.771c13.959-9.057,23.151-11.403,32.302-10.654c33.092,2.705,15.3,46.185-2.189,56.635
	c-10.26,6.135-24.163,8.869-43.366,6.141c-2.264,9.055-4.528,18.107-6.791,27.161C236.009,173.778,228.896,173.778,221.781,173.778
	L221.781,173.778z M287.143,125.69c9.989-8.37,9.878-23.562,3.02-27.926c-6.854-4.362-22.357-0.882-27.408,11.601
	c-5.046,12.483-5.457,20.095-8.221,26.887C260.315,135.827,277.154,134.06,287.143,125.69L287.143,125.69z"/>
<path style="fill-rule:evenodd;clip-rule:evenodd;fill:#241F20;" d="M383.569,148.246c-6.227,0-11.669,0.128-17.895,0.128
	l1.161-13.487c-12.796,12.094-33.538,20.086-43.053,8.689c-13.034-17.808-0.688-40.967,14.001-50.48
	c16.306-10.562,37.956-10.014,59.53-10.471C389.589,104.09,384.401,126.096,383.569,148.246L383.569,148.246z M346.277,104.973
	c-8.688,8.367-8.592,23.562-2.626,27.924c5.96,4.363,19.449,0.883,23.841-11.601c4.392-12.482,4.749-20.093,7.151-26.886
	C369.617,94.836,354.965,96.604,346.277,104.973L346.277,104.973z"/>
<path style="fill-rule:evenodd;clip-rule:evenodd;fill:#241F20;" d="M390.662,174.282l3.13-16.648
	c13.909,4.507,25.981,6.672,35.05,2.122c7.058-3.54,12.302-11.145,15.181-24.869c-12.795,12.094-33.54,20.086-43.053,8.689
	c-13.038-17.808-0.69-40.967,14.001-50.48c16.306-10.562,37.956-10.014,59.532-10.471c-6.683,18.564-6.807,47.699-15.678,68.428
	c-4.682,10.946-12.552,17.974-21.969,21.995C423.085,178.926,405.996,178.387,390.662,174.282L390.662,174.282z M423.464,104.973
	c-8.689,8.367-8.593,23.562-2.627,27.924c5.965,4.363,19.453,0.883,23.845-11.601c4.392-12.482,4.749-20.093,7.151-26.886
	C446.804,94.836,432.155,96.604,423.464,104.973L423.464,104.973z"/>
<path style="fill-rule:evenodd;clip-rule:evenodd;fill:#93D629;" d="M604.391,174.282l3.13-16.648
	c13.906,4.507,25.979,6.672,35.052,2.122c7.053-3.54,12.298-11.145,15.176-24.869c-12.793,12.094-33.537,20.086-43.049,8.689
	c-13.038-17.808-0.689-40.967,13.999-50.48c16.304-10.562,37.96-10.014,59.533-10.471c-6.684,18.564-6.808,47.699-15.681,68.428
	c-4.683,10.946-12.547,17.974-21.966,21.995C636.812,178.926,619.721,178.387,604.391,174.282L604.391,174.282z M845.126,110.493
	c-6.135,10.964-5.364,22.597,1.721,25.975c7.085,3.376,17.804-2.778,23.942-13.746c6.136-10.966,5.369-22.596-1.72-25.975
	C861.984,93.37,851.262,99.523,845.126,110.493L845.126,110.493z M839.659,90.962c-18.998,12.73-26.618,34.189-17.012,47.919
	c9.605,13.73,32.802,14.543,51.796,1.814c19-12.729,26.616-34.188,17.018-47.92C881.85,79.045,858.659,78.234,839.659,90.962
	L839.659,90.962z M762.986,146.134c8.329-21.16,13.937-48.164,18.129-63.2h15.024l-0.521,13.469
	c6.562-9.066,18.478-14.072,30.569-13.469l-5.699,17.095c-15.029-1.972-25.62,10.052-31.479,29.924
	c-1.491,5.06-2.681,10.635-3.55,16.613L762.986,146.134L762.986,146.134z M702.376,82.415c6.214,0.173,12.434,0.347,18.647,0.52
	c-3.284,13.813-8.638,27.109-11.914,40.923c-4.86,16.806,15.182,15.058,23.827,4.662c7.7-13.538,11.145-29.781,16.064-46.105
	c6.214,0,12.43,0,18.646,0c-7.039,21.585-13.171,43.169-16.061,64.756c-5.523-0.346-12.089-0.692-17.61-1.037
	c0.174-3.456,0.342-6.907,0.518-10.362c-18.687,17.166-49.441,21.697-45.59-7.252C691.115,113.15,697.35,97.783,702.376,82.415
	L702.376,82.415z M596.175,133.184c-0.516,4.315-2.073,8.632-2.586,12.95c-20.115,2.763-41.701,7.419-52.844-8.287
	c-11.529-22.235,5.102-42.601,19.686-50.25c25.604-11.484,43.387-5.636,47.144,5.698c7.59,19.881-15.884,32.998-49.733,29.01
	C554.312,139.59,571.974,139.331,596.175,133.184L596.175,133.184z M561.083,110.132c3.124-6.917,8.415-13.914,19.167-15.284
	c8.465-0.82,9.368,8.101,4.395,11.532C575.613,110.273,574.604,104.938,561.083,110.132L561.083,110.132z M477.807,131.89
	c-2.077,4.488-4.406,9.237-6.477,13.726c25.303,5.507,44.677,2.186,52.319-5.955c7.466-9.207,6.214-19.628-6.733-27.202
	c-2.761-1.917-10.563-5.782-10.362-10.358c0.367-10.409,16.195-7.934,25.909-4.921l3.102-14.25
	c-6.789-1.576-15.41-2.045-22.337-1.366c-8.433,0.825-17.506,4.472-24.541,11.467c-5.464,5.674-6.59,13.321-4.588,17.974
	c2.402,5.579,10.195,7.925,14.169,10.255c6.649,3.098,10.609,5.438,9.483,10.147c-0.945,3.955-5.765,7.189-14.388,5.651
	C488.007,136.101,481.751,134.194,477.807,131.89L477.807,131.89z M637.192,104.973c-8.687,8.367-8.592,23.562-2.632,27.924
	c5.97,4.363,19.455,0.883,23.851-11.601c4.39-12.482,4.747-20.093,7.149-26.886C660.531,94.836,645.884,96.604,637.192,104.973
	L637.192,104.973z"/>
<path style="fill-rule:evenodd;clip-rule:evenodd;fill:#241F20;" d="M48.033,59.56c-6.478,7.615-11.363,16.274-14.937,25.748
	c-3.75,9.853-5.754,19.978-5.754,30.775c0,12.234,2.612,23.567,7.097,34.274c4.471,10.627,10.581,19.764,18.624,27.793
	c7.824,7.82,16.991,14.078,27.588,18.635c10.595,4.624,22.112,7.172,34.061,7.172c12.15,0,23.483-2.438,34.271-7.172
	c10.319-4.504,19.631-10.664,27.588-18.635c7.882-7.896,13.963-17.222,18.331-27.793c4.589-10.819,7.188-22.04,7.188-34.274
	c0-10.797-2.021-20.922-5.761-30.775c-3.658-9.474-8.499-17.946-14.932-25.748c-6.438-7.629-13.888-13.946-22.329-18.831
	C145.809,33.076,132.131,28.5,116.28,28.5c-0.768,0-1.52,0-2.273,0c-15.645,0-29.976,4.48-43.453,12.229
	C62.022,45.576,54.497,51.96,48.033,59.56L48.033,59.56z"/>
<path style="fill-rule:evenodd;clip-rule:evenodd;fill:#241F20;" d="M835.368,163.69c-3.241,0-6.236,0.517-9.077,1.664
	c-2.809,1.15-5.287,2.724-7.389,4.855c-2.123,2.124-3.789,4.5-4.857,7.226c-1.146,2.756-1.657,5.754-1.657,8.998
	c0,3.08,0.512,6.08,1.657,8.836c1.068,2.617,2.734,5.105,4.857,7.228c2.213,2.017,4.664,3.681,7.5,4.826
	c2.729,1.062,5.809,1.688,8.966,1.688c3.28,0,6.195-0.626,9.116-1.688c2.723-1.146,5.26-2.81,7.389-4.826
	c2.201-2.122,3.787-4.61,4.937-7.34c1.144-2.726,1.687-5.64,1.687-8.724c0-3.244-0.543-6.242-1.687-8.998
	c-1.063-2.726-2.649-5.102-4.859-7.226c-2.095-2.132-4.663-3.705-7.466-4.855C841.648,164.207,838.648,163.69,835.368,163.69
	L835.368,163.69z M835.368,178.143c2.218,0,3.981,0.713,5.294,2.29c1.331,1.5,2.045,3.439,2.045,6.001
	c0,2.374-0.714,4.416-2.045,5.834c-1.312,1.474-3.076,2.186-5.294,2.186c-2.179,0-3.869-0.68-5.179-2.186
	c-1.42-1.418-2.044-3.46-2.044-5.834c0-2.562,0.624-4.501,2.044-6.001C831.499,178.855,833.189,178.143,835.368,178.143
	L835.368,178.143z"/>
<path style="fill-rule:evenodd;clip-rule:evenodd;fill:#241F20;" d="M805.242,195.707c0.354-2.05,0.509-4.583,0.509-7.689v-23.377
	h-15.513v23.565c0,2.644-0.272,4.5-0.979,5.647c-0.707,1.062-1.743,1.577-3.357,1.577c-1.58,0-2.638-0.516-3.323-1.577
	c-0.628-0.986-0.984-2.916-0.984-5.647v-23.565h-15.428v23.377c-0.09,3.27,0.182,5.756,0.538,7.689
	c0.327,2.018,1.042,3.598,1.829,4.938c1.778,2.72,4.146,4.745,7.144,6.161c2.922,1.5,6.357,2.206,10.225,2.206
	c3.901,0,7.258-0.706,10.23-2.206c3-1.416,5.4-3.441,7.059-6.161C804.063,199.305,804.776,197.641,805.242,195.707L805.242,195.707z
	"/>
<polygon style="fill-rule:evenodd;clip-rule:evenodd;fill:#241F20;" points="880.537,164.641 865.013,164.641 865.013,207.868 
	895.611,207.868 895.611,193.854 880.537,193.854 880.537,164.641 "/>
<path style="fill-rule:evenodd;clip-rule:evenodd;fill:#FFAA00;" d="M173.088,60.284c-10.821-13.151-24.826-21.622-42.11-24.891
	c-16.97-3.194-33.043-0.635-48.263,7.616c-7.819,4.396-14.429,9.88-19.758,16.345c-5.478,6.613-9.669,14.22-12.369,22.752
	c-2.776,8.745-3.486,17.923-2.554,26.875c2.273-5.756,5.754-11.031,9.887-16.071c5.964-7.114,13.359-12.442,21.61-16.354
	c8.233-3.699,17.269-5.762,26.654-5.97c9.445,0,18.624,1.844,27.139,5.549c8.976,3.63,16.799,9.172,23.467,16.567
	c2.495,2.488,4.565,5.469,6.61,8.457c2.983,0,5.978,0.207,8.534,0.928c6.686,1.845,11.956,5.256,16.075,10.375l0.201-3.274
	c0.727-8.959-0.201-17.417-2.682-25.734C182.959,75.203,178.824,67.383,173.088,60.284L173.088,60.284z"/>
<path style="fill-rule:evenodd;clip-rule:evenodd;fill:#FFAA00;" d="M46.173,143.029c1.135,6.9,3.205,13.506,6.67,19.547
	c3.219,5.979,7.616,11.447,13.094,16.288l2.774,2.274c9.459,6.473,19.541,11.089,30.578,13.368
	c7.114,1.345,14.286,0.917,21.182-0.713c7.319-1.566,14.229-4.548,20.694-8.959c-5.978-1.35-11.305-4.557-15.442-9.385l-1.625-1.847
	c-8.677,0.923-17.414,0.642-26.165-1.137c-11.103-2.556-20.692-7.183-29.649-13.578c-8.534-6.473-15.633-14.725-20.978-24.383
	l-1.352-2.784C45.745,135.422,45.745,139.324,46.173,143.029L46.173,143.029z"/>
<path style="fill-rule:evenodd;clip-rule:evenodd;fill:#ED3921;" d="M127.997,85.093c-8.025-3.483-16.785-5.047-25.726-5.047
	c-8.749,0.206-17.001,2.06-24.602,5.749c-7.614,3.423-14.211,8.471-19.748,14.943c-3.925,4.835-7.128,10.095-9.177,15.636
	c1.563,6.893,4.1,13.288,7.819,19.765c5.257,8.955,12.149,16.558,20.68,22.53c8.25,5.969,17.711,9.887,27.791,12.152
	c6.179,1.146,12.662,1.646,19.066,1.351c-2.491-4.109-4.128-8.45-4.838-13.503c-0.858-5.107-0.634-10.162,0.278-15.64
	c1.136-6.685,3.631-12.868,7.097-18.626c3.722-5.762,8.551-11.019,14.229-15.215c3.707-2.694,7.616-4.754,11.531-6.4l-2.07-2.345
	C143.861,93.838,136.532,88.501,127.997,85.093L127.997,85.093z"/>
<path style="fill-rule:evenodd;clip-rule:evenodd;fill:#FF8800;" d="M189.423,124.403l-2.047-3.482
	c-2.997,10.375-8.551,19.558-15.648,27.873c-1.638,6.89-4.41,13.076-8.027,18.839c-3.705,5.684-8.548,10.803-14.082,15.143
	c3.913,0.208,7.823-0.421,11.737-1.854c3.682-1.35,7.097-3.407,10.58-6.19c4.635-4.331,8.971-9.447,12.662-14.706l0.633-0.923
	c1.638-3.419,3.28-6.893,4.4-10.103c1.152-3.483,1.86-6.893,2.079-10.081c0.21-3.497,0.21-6.487-0.427-9.466
	C190.783,127.613,190.072,125.97,189.423,124.403L189.423,124.403z"/>
<path style="fill-rule:evenodd;clip-rule:evenodd;fill:#F66418;" d="M38.13,83.942c-2.981,8.267-4.607,16.996-5.034,26.462
	c-0.21,12.141,2.053,23.881,6.686,34.914c2.257,5.245,5.048,10.366,8.445,15.21c3.291,4.546,6.906,8.959,11.022,12.789
	c-8.943-9.884-14.229-21.327-15.835-34.191c-0.439-4.404-0.439-8.53-0.222-12.868c-2.981-8.333-4.619-16.567-4.619-25.098
	c0-8.029,1.413-15.852,3.909-23.897c2.126-5.533,4.826-10.802,7.824-15.621C45.021,68.535,41.139,75.921,38.13,83.942L38.13,83.942z
	"/>
<path style="fill-rule:evenodd;clip-rule:evenodd;fill:#F66418;" d="M195.123,88.79c-2.07-6.684-4.767-13.157-8.254-19.127
	c-3.41-5.756-7.616-11.026-12.645-15.844c-4.562-4.848-9.887-8.974-15.856-12.447c5.034,3.474,9.651,7.599,13.786,12.226
	c6.467,7.323,11.305,15.144,14.287,23.89c2.982,8.948,4.343,18.204,3.631,27.798c-0.207,2.989-0.649,5.755-1.133,8.744
	c1.133,1.845,2.345,4.117,3.273,6.462c2.26,6.689,2.689,13.795,1.552,20.909c3.485-9.873,5.254-20.274,5.044-30.996
	C198.38,103.01,197.249,95.69,195.123,88.79L195.123,88.79z"/>
<path style="fill-rule:evenodd;clip-rule:evenodd;fill:#F66418;" d="M168.019,110.613c2.28,4.833,3.708,10.101,4.341,15.357
	c0.728,5.326,0.928,10.375,0.503,15.43l-0.928,5.048c6.889-8.028,11.523-16.994,14.229-27.38c-1.566-1.556-3.205-3.194-5.065-4.538
	C177.408,111.962,173.088,110.613,168.019,110.613L168.019,110.613z"/>
<path style="fill-rule:evenodd;clip-rule:evenodd;fill:#ED3921;" d="M154.242,171.257c2.773-3.92,5.044-8.238,6.681-12.588
	c-9.252,6.615-19.332,11.242-30.354,13.503c1.563,2.56,3.684,4.633,5.964,6.264c2.285,1.563,4.836,2.703,7.815,3.63
	C148.054,178.864,151.462,175.159,154.242,171.257L154.242,171.257z"/>
<path style="fill-rule:evenodd;clip-rule:evenodd;fill:#ED3921;" d="M108.014,195.852l9.905,0.493
	c8.525-0.204,16.543-1.838,24.381-4.404c7.319-2.487,14.491-5.971,20.691-10.309c-3.923,1.854-8.046,3.203-12.44,3.409
	c-1.36,0.282-2.999,0.282-4.56,0.282C134.7,192.657,122.019,196.141,108.014,195.852L108.014,195.852z"/>
<path style="fill-rule:evenodd;clip-rule:evenodd;fill:#FFEC00;" d="M162.767,129.237c-1.411-5.971-3.481-11.505-6.462-16.775
	c-5.27,1.566-9.889,4.341-14.23,8.028c-4.618,3.913-8.525,8.747-11.506,14.23c-2.572,5.533-4.125,10.796-4.623,16.335
	c-0.638,5.263,0,10.106,1.417,14.724c0.635,1.558,1.138,2.981,2.07,4.341c5.756-0.634,11.008-2.279,16.278-4.554
	c5.534-2.134,10.595-5.039,15.422-8.735l0.427-0.296c0.934-3.416,1.642-6.894,2.142-10.317
	C164.111,140.479,163.903,134.991,162.767,129.237L162.767,129.237z"/>
</svg>
