<svg version="1.1" xmlns="http://www.w3.org/2000/svg" xmlns:xlink="http://www.w3.org/1999/xlink" x="0px" y="0px" viewBox="0 0 72.75 72.75" enable-background="new 0 0 72.75 72.75" xml:space="preserve">
<g id="Layer_1">
</g>
<g id="Layer_2">
	<g>
		<path fill="#7F85FC" d="M57.25,30.75c-1.379,0-2.5-1.121-2.5-2.5s1.121-2.5,2.5-2.5s2.5,1.121,2.5,2.5S58.629,30.75,57.25,30.75z
			 M57.25,26.75c-0.828,0-1.5,0.674-1.5,1.5c0,0.828,0.672,1.5,1.5,1.5c0.826,0,1.5-0.672,1.5-1.5
			C58.75,27.424,58.076,26.75,57.25,26.75z"/>
		<path fill="#F4D01E" d="M19.25,14.75c-1.379,0-2.5-1.121-2.5-2.5s1.121-2.5,2.5-2.5s2.5,1.121,2.5,2.5S20.629,14.75,19.25,14.75z
			 M19.25,10.75c-0.828,0-1.5,0.674-1.5,1.5c0,0.828,0.672,1.5,1.5,1.5c0.826,0,1.5-0.672,1.5-1.5
			C20.75,11.424,20.076,10.75,19.25,10.75z"/>
		<path fill="#F4D01E" d="M51.579,23.461c-0.107-0.058-0.633-0.347-0.775-0.425s-0.26-0.197-0.34-0.34s-0.365-0.67-0.424-0.775
			s-0.17-0.171-0.29-0.171s-0.231,0.065-0.29,0.171s-0.344,0.633-0.424,0.775s-0.197,0.262-0.34,0.34s-0.668,0.367-0.775,0.425
			s-0.171,0.17-0.171,0.289s0.063,0.231,0.171,0.289s0.633,0.347,0.775,0.425s0.26,0.197,0.34,0.34s0.365,0.67,0.424,0.775
			s0.17,0.171,0.29,0.171s0.231-0.065,0.29-0.171s0.344-0.633,0.424-0.775s0.197-0.262,0.34-0.34s0.668-0.367,0.775-0.425
			s0.171-0.17,0.171-0.289S51.687,23.519,51.579,23.461z"/>
		<path fill="#FF8C00" d="M14.579,32.461c-0.107-0.058-0.633-0.347-0.775-0.425s-0.26-0.197-0.34-0.34s-0.365-0.67-0.424-0.775
			s-0.17-0.171-0.29-0.171s-0.231,0.065-0.29,0.171s-0.344,0.633-0.424,0.775s-0.197,0.262-0.34,0.34s-0.668,0.367-0.775,0.425
			s-0.171,0.17-0.171,0.289s0.063,0.231,0.171,0.289s0.633,0.347,0.775,0.425s0.26,0.197,0.34,0.34s0.365,0.67,0.424,0.775
			s0.17,0.171,0.29,0.171s0.231-0.065,0.29-0.171s0.344-0.633,0.424-0.775s0.197-0.262,0.34-0.34s0.668-0.367,0.775-0.425
			s0.171-0.17,0.171-0.289S14.687,32.519,14.579,32.461z"/>
		<path fill="#F4D01E" d="M10.622,61.033c-0.08-0.044-0.475-0.261-0.582-0.319s-0.195-0.146-0.254-0.254s-0.273-0.504-0.318-0.582
			S9.341,59.75,9.25,59.75s-0.173,0.05-0.218,0.128s-0.26,0.475-0.318,0.582s-0.146,0.195-0.254,0.254s-0.502,0.275-0.582,0.319
			S7.75,61.16,7.75,61.25s0.048,0.173,0.128,0.217s0.475,0.261,0.582,0.319s0.195,0.146,0.254,0.254s0.273,0.504,0.318,0.582
			S9.159,62.75,9.25,62.75s0.173-0.05,0.218-0.128s0.26-0.475,0.318-0.582s0.146-0.195,0.254-0.254s0.502-0.275,0.582-0.319
			s0.128-0.127,0.128-0.217S10.702,61.077,10.622,61.033z"/>
		<path fill="#7F85FC" d="M22.622,22.033c-0.08-0.044-0.475-0.261-0.582-0.319s-0.195-0.146-0.254-0.254s-0.273-0.504-0.318-0.582
			s-0.127-0.128-0.218-0.128s-0.173,0.05-0.218,0.128s-0.26,0.475-0.318,0.582s-0.146,0.195-0.254,0.254s-0.502,0.275-0.582,0.319
			S19.75,22.16,19.75,22.25s0.048,0.173,0.128,0.217s0.475,0.261,0.582,0.319s0.195,0.146,0.254,0.254s0.273,0.504,0.318,0.582
			s0.127,0.128,0.218,0.128s0.173-0.05,0.218-0.128s0.26-0.475,0.318-0.582s0.146-0.195,0.254-0.254s0.502-0.275,0.582-0.319
			s0.128-0.127,0.128-0.217S22.702,22.077,22.622,22.033z"/>
		<path fill="#FF8C00" d="M63.622,48.033c-0.08-0.044-0.475-0.261-0.582-0.319s-0.195-0.146-0.254-0.254s-0.273-0.504-0.318-0.582
			s-0.127-0.128-0.218-0.128s-0.173,0.05-0.218,0.128s-0.26,0.475-0.318,0.582s-0.146,0.195-0.254,0.254s-0.502,0.275-0.582,0.319
			S60.75,48.16,60.75,48.25s0.048,0.173,0.128,0.217s0.475,0.261,0.582,0.319s0.195,0.146,0.254,0.254s0.273,0.504,0.318,0.582
			s0.127,0.128,0.218,0.128s0.173-0.05,0.218-0.128s0.26-0.475,0.318-0.582s0.146-0.195,0.254-0.254s0.502-0.275,0.582-0.319
			s0.128-0.127,0.128-0.217S63.702,48.077,63.622,48.033z"/>
		<circle fill="#FF8C00" cx="59.5" cy="15.5" r="0.75"/>
		<circle fill="#F4D01E" cx="60.5" cy="61.5" r="0.75"/>
		<circle fill="#7F85FC" cx="11.5" cy="53.5" r="0.75"/>
		<circle fill="#7F85FC" cx="67.25" cy="38.25" r="0.5"/>
		<circle fill="#FF8C00" cx="30.25" cy="4.25" r="0.5"/>
		<circle fill="#7F85FC" cx="4.25" cy="33.25" r="0.5"/>
		<circle fill="#FF8C00" cx="15.25" cy="67.25" r="0.5"/>
		<circle fill="#7F85FC" cx="51.25" cy="11.25" r="0.5"/>
		<circle fill="#F4D01E" cx="57.75" cy="36.75" r="1"/>
		<circle fill="#F4D01E" cx="25.75" cy="66.75" r="1"/>
	</g>
</g>
<g id="Layer_3">
	<g>
		<g>
			<path fill="#7F85FC" d="M39.75,26.75c-0.335,0-7.666,0-8,0c-3,3-16,12-16,24c0,8.837,7.164,16,16,16h8c8.837,0,16-7.163,16-16
				C55.75,38.75,42.75,29.75,39.75,26.75z"/>
			<path fill="#6762FF" d="M36.75,66.75c9.12,0,15-6.832,15-15.6c0-11.153-10.208-19.95-15.364-24.4h3.364c3,3,16,12,16,24
				c0,8.837-7.163,16-16,16H36.75z"/>
			<path fill="#FFFFFF" d="M18.75,49.95c0-10.572,9.607-18.924,14.561-23.2c-0.753,0-1.411,0-1.561,0c-3,3-16,12-16,24
				c0,8.837,7.164,16,16,16h3.8C26.271,66.75,18.75,59.229,18.75,49.95z"/>
			<path fill="none" stroke="#000000" stroke-width="2" stroke-linecap="round" stroke-linejoin="round" stroke-miterlimit="10" d="
				M21.74,36.415c-3.252,3.953-5.99,8.828-5.99,14.335c0,8.837,7.164,16,16,16h8c8.837,0,16-7.163,16-16c0-12-13-21-16-24
				c-0.335,0-7.666,0-8,0c-0.939,0.939-2.859,2.467-5.054,4.491"/>
			<path fill="none" stroke="#000000" stroke-width="2" stroke-linecap="round" stroke-linejoin="round" stroke-miterlimit="10" d="
				M24.467,33.396c-0.259,0.264-0.518,0.533-0.777,0.809"/>
			<g>
				
					<path fill="none" stroke="#FFFFFF" stroke-width="2" stroke-linecap="round" stroke-linejoin="round" stroke-miterlimit="10" d="
					M24.75,42.75c-0.117,0.323-0.243,0.668-0.375,1.019"/>
				
					<path fill="none" stroke="#FFFFFF" stroke-width="2" stroke-linecap="round" stroke-linejoin="round" stroke-miterlimit="10" d="
					M31.5,33.5c-2.017,1.841-4.076,4.503-5.25,7"/>
			</g>
		</g>
		<g>
			<path fill="#7F85FC" d="M39.75,21.75l2.512-4.396c0.308-0.539,0.306-1.201-0.006-1.737c-0.312-0.537-0.886-0.867-1.506-0.867h-10
				c-0.621,0-1.194,0.33-1.506,0.867c-0.312,0.537-0.313,1.199-0.006,1.737l2.512,4.396H39.75z"/>
			<path fill="#6762FF" d="M40.75,14.75c0.62,0,1.194,0.33,1.506,0.867c0.312,0.537,0.313,1.199,0.006,1.737L39.75,21.75h-2l2-7
				H40.75z"/>
			<path fill="#FFFFFF" d="M42.256,15.617c-0.312-0.537-0.886-0.867-1.506-0.867h-10c-0.621,0-1.194,0.33-1.506,0.867
				c-0.312,0.537-0.313,1.199-0.006,1.737l2.512,4.396h2l-1.247-4.363c-0.043-0.151-0.013-0.313,0.082-0.438
				c0.095-0.125,0.243-0.199,0.399-0.199h6.766c0.62,0,1.194,0.33,1.506,0.867c0.199,0.343,0.271,0.737,0.218,1.117l0.788-1.38
				C42.569,16.816,42.567,16.154,42.256,15.617z"/>
			<path fill="#CCDCFF" d="M42.262,17.354c0.308-0.539,0.306-1.201-0.006-1.737c-0.312-0.537-0.886-0.867-1.506-0.867h-1l-0.571,2
				h0.571c0.62,0,1.194,0.33,1.506,0.867c0.199,0.343,0.271,0.737,0.218,1.117L42.262,17.354z"/>
			<path fill="none" stroke="#000000" stroke-width="2" stroke-linecap="round" stroke-linejoin="round" stroke-miterlimit="10" d="
				M35.75,14.75h-5c-0.621,0-1.194,0.33-1.506,0.867c-0.312,0.537-0.313,1.199-0.006,1.737l2.512,4.396h8l2.512-4.396
				c0.308-0.539,0.306-1.201-0.006-1.737c-0.312-0.537-0.886-0.867-1.506-0.867h-1"/>
		</g>
		<g>
			<path fill="#FFFFFF" d="M39.75,21.75h-8c-1.104,0-2,0.896-2,2v1c0,1.104,0.896,2,2,2h8c1.104,0,2-0.896,2-2v-1
				C41.75,22.646,40.854,21.75,39.75,21.75z"/>
			<path fill="#CCDCFF" d="M38.75,23.75v1c0,1.104-0.896,2-2,2c1.159,0,2.754,0,3,0c1.104,0,2-0.896,2-2v-1c0-1.104-0.896-2-2-2h-3
				C37.854,21.75,38.75,22.646,38.75,23.75z"/>
			<path fill="none" stroke="#000000" stroke-width="2" stroke-linecap="round" stroke-linejoin="round" stroke-miterlimit="10" d="
				M39.75,21.75h-8c-1.104,0-2,0.896-2,2v1c0,1.104,0.896,2,2,2h8c1.104,0,2-0.896,2-2v-1C41.75,22.646,40.854,21.75,39.75,21.75z"
				/>
		</g>
		<g>
			
				<line fill="none" stroke="#000000" stroke-width="2" stroke-linecap="round" stroke-linejoin="round" stroke-miterlimit="10" x1="20.75" y1="66.75" x2="54.75" y2="66.75"/>
			
				<line fill="none" stroke="#000000" stroke-width="2" stroke-linecap="round" stroke-linejoin="round" stroke-miterlimit="10" x1="57.75" y1="66.75" x2="58.75" y2="66.75"/>
		</g>
		<g>
			<circle fill="#F4D01E" cx="45.75" cy="54.75" r="12"/>
			<path fill="#FF8C00" d="M53.177,45.323c1.611,2.043,2.573,4.623,2.573,7.427c0,6.627-5.373,12-12,12
				c-2.804,0-5.384-0.962-7.426-2.573c2.198,2.785,5.603,4.573,9.426,4.573c6.627,0,12-5.373,12-12
				C57.75,50.927,55.962,47.521,53.177,45.323z"/>
			<path fill="#FFFFFF" d="M47.75,44.75c2.804,0,5.384,0.962,7.427,2.573c-2.198-2.785-5.604-4.573-9.427-4.573
				c-6.627,0-12,5.373-12,12c0,3.823,1.788,7.229,4.573,9.427c-1.611-2.043-2.573-4.623-2.573-7.427
				C35.75,50.123,41.123,44.75,47.75,44.75z"/>
			<path fill="none" stroke="#000000" stroke-width="2" stroke-linecap="round" stroke-linejoin="round" stroke-miterlimit="10" d="
				M35.384,48.701c-1.039,1.776-1.634,3.843-1.634,6.049c0,6.627,5.373,12,12,12s12-5.373,12-12s-5.373-12-12-12
				c-1.883,0-3.665,0.434-5.251,1.207"/>
			<path fill="none" stroke="#000000" stroke-width="2" stroke-linecap="round" stroke-linejoin="round" stroke-miterlimit="10" d="
				M37.957,45.624c-0.273,0.234-0.537,0.48-0.788,0.738"/>
			
				<circle fill="none" stroke="#000000" stroke-width="2" stroke-linecap="round" stroke-linejoin="round" stroke-miterlimit="10" cx="45.75" cy="54.75" r="8.5"/>
			<path d="M49.45,49.75h-7.4c-0.682,0-1.233,0.318-1.233,1c0,0.683,0.552,1,1.233,1h2.7v0.892
				c-0.521,0.126-0.521,0.126-0.698,0.228c-0.525,0.302-0.99,0.733-1.266,1.281c-0.271,0.539-0.438,1.163-0.438,1.854
				c0,1.032,0.408,1.873,1.009,2.498c0.351,0.364,0.409,0.545,1.394,0.765v0.315c0,0.682,0.318,1.233,1,1.233s1-0.552,1-1.233
				v-0.313c0-0.009,0.171-0.011,0.197-0.02c0.397-0.134,0.796-0.316,1.069-0.545c0.27-0.227,0.503-0.473,0.64-0.732
				c0.141-0.267,0.226-0.526,0.226-0.771c0-0.241-0.08-0.467-0.258-0.67c-0.344-0.395-0.955-0.429-1.324-0.098
				c-0.119,0.106-0.22,0.256-0.317,0.421c-0.018,0.028-0.039,0.041-0.055,0.071c-0.146,0.257-0.315,0.446-0.496,0.565
				c-0.306,0.196-0.798,0.232-1.162,0.062c-0.153-0.069-0.281-0.171-0.39-0.31c-0.113-0.142-0.202-0.321-0.265-0.531
				c-0.063-0.216-0.097-0.462-0.097-0.729c0-0.558,0.122-0.996,0.363-1.303c0.224-0.288,0.513-0.428,0.883-0.428
				c0.258,0,0.467,0.056,0.624,0.165c0.176,0.123,0.352,0.315,0.528,0.585c0.023,0.031,0.043,0.054,0.066,0.083
				c0.102,0.131,0.196,0.236,0.287,0.306c0.338,0.269,0.896,0.205,1.236-0.113c0.202-0.188,0.31-0.431,0.31-0.705
				c0-0.238-0.077-0.493-0.229-0.752c-0.145-0.247-0.353-0.479-0.617-0.689c-0.265-0.211-0.704-0.383-1.072-0.513
				c-0.011-0.003-0.147-0.005-0.147-0.007v-0.86h2.7c0.682,0,1.233-0.317,1.233-1C50.684,50.068,50.132,49.75,49.45,49.75z"/>
		</g>
	</g>
</g>
</svg>
