<svg style="fill:#cccccc;" stroke="fill" version="1.1" id="Layer_1" xmlns="http://www.w3.org/2000/svg" xmlns:xlink="http://www.w3.org/1999/xlink" x="0px" y="0px" viewBox="0 0 300 300" enable-background="new 0 0 300 300" xml:space="preserve">
<path d="M176.426,222.046c3.141-0.117,6.094-1.477,8.25-3.75l59.25-60l8.25-8.437l-8.25-8.438l-59.25-60
	c-4.664-4.758-12.305-4.852-17.062-0.188s-4.852,12.305-0.188,17.062l39.188,39.562H56.051c-4.336-0.07-8.344,2.203-10.523,5.953
	c-2.203,3.727-2.203,8.367,0,12.093c2.18,3.75,6.188,6.023,10.523,5.953h150.562l-39.188,39.562
	c-3.609,3.492-4.688,8.836-2.672,13.453C166.77,219.468,171.41,222.327,176.426,222.046z"/>
</svg>
