<svg version="1.1" xmlns="http://www.w3.org/2000/svg" xmlns:xlink="http://www.w3.org/1999/xlink" x="0px" y="0px" viewBox="0 0 300 300" enable-background="new 0 0 300 300" xml:space="preserve">
<g>
	<g>
		<polygon fill="outline" points="249.23,157.354 284.255,51.16 217.275,51.16 194.456,136.567 171.636,51.16 128.365,51.16 
			105.544,136.567 82.724,51.16 15.745,51.16 58.337,180.295"/>
		<polygon fill="outline" points="72.543,223.366 80.946,248.84 130.144,248.84 150.001,248.84 169.856,248.84 219.053,248.84 
			233.851,203.98 		"/>
	</g>
	<path fill="outline" d="M84.021,182.153c9.091,0,16.462,7.374,16.462,16.464c0,9.093-7.371,16.464-16.462,16.464
		c-9.093,0-16.463-7.371-16.463-16.464C67.559,189.527,74.929,182.153,84.021,182.153z"/>
	<circle fill="outline" cx="154.226" cy="190.387" r="16.463"/>
	<path fill="outline" d="M222.41,165.692c9.093,0,16.464,7.37,16.464,16.461c0,9.093-7.371,16.464-16.464,16.464
		c-9.09,0-16.461-7.371-16.461-16.464C205.949,173.062,213.32,165.692,222.41,165.692z"/>
</g>
</svg>
