
<svg version="1.1" xmlns="http://www.w3.org/2000/svg" xmlns:xlink="http://www.w3.org/1999/xlink" viewBox="0 0 172 172"><g fill="none" fill-rule="nonzero" stroke="none" stroke-width="1" stroke-linecap="butt" stroke-linejoin="miter" stroke-miterlimit="10" stroke-dasharray="" stroke-dashoffset="0" font-family="none" font-weight="none" font-size="none" text-anchor="none" style="mix-blend-mode: normal"><path d="M0,172v-172h172v172z" fill="none"></path><g fill="#333333"><path d="M86,0c-43.72786,0 -78.83333,32.25 -78.83333,71.66667c0,39.41667 35.10547,71.66667 78.83333,71.66667v28.66667c0,0 78.83333,-38.6888 78.83333,-100.33333c0,-39.41667 -35.10547,-71.66667 -78.83333,-71.66667zM104.64453,93.16667h-7.89453v-26.51107l-7.89453,26.51107h-5.71094l-7.89453,-26.51107v26.51107h-7.89453v-42.27213h10.75l7.89453,31.52213l7.89453,-31.52213h10.75zM129.72787,93.89453c-4.3112,0 -7.16667,-1.45573 -10.05013,-3.58333c-2.85547,-2.1556 -4.2832,-5.73894 -4.2832,-10.05013h7.86653c0,2.88347 0.72786,4.31119 1.42774,5.73893c0.72786,1.42774 2.88346,1.42774 5.03906,1.42774c1.42773,0 2.85547,-0.69987 4.2832,-1.42774c0.72786,-0.72786 1.42774,-2.1556 1.42774,-3.58333c0,-1.42774 -0.69988,-2.85547 -1.42774,-4.31119c-0.69987,-0.69988 -2.1556,-2.1276 -4.2832,-2.85547c-4.3112,-1.42774 -7.89453,-3.58333 -10.05013,-5.01107c-2.1556,-2.1556 -3.58333,-4.31119 -3.58333,-7.89453c0,-3.58333 1.42774,-6.43881 3.58333,-8.5944c2.1556,-2.1556 5.73893,-3.58333 9.32226,-3.58333c4.3112,0 7.16667,1.42774 10.02214,3.58333c2.1556,2.1556 3.58333,5.73893 3.58333,9.32226h-7.86654c0,-2.1556 -0.72786,-3.58333 -1.42773,-5.01106c-1.45573,-0.72787 -2.88347,-1.45573 -4.3112,-1.45573c-1.42774,0 -2.85547,0.72786 -3.58333,1.45573c-0.72786,0.69987 -1.42774,2.1276 -1.42774,3.58333c0,1.42773 0.69988,2.85547 1.42774,3.58333c0.72787,0.69987 2.85547,2.1276 5.01107,2.85547c4.31119,1.42774 7.16667,2.85547 9.32226,5.01107c2.1556,2.1556 2.85547,5.01107 2.85547,8.5944c0,3.58333 -1.42774,6.46679 -3.58333,8.6224c-2.1276,2.1276 -5.71094,3.58333 -9.29427,3.58333zM43.72787,93.89453c-4.3112,0 -7.16667,-1.45573 -10.05013,-3.58333c-2.85547,-2.1556 -4.2832,-5.73894 -4.2832,-10.05013h7.86653c0,2.88347 0.72786,4.31119 1.42774,5.73893c0.72786,1.42774 2.88346,1.42774 5.03906,1.42774c1.42773,0 2.85547,-0.69987 4.2832,-1.42774c0.72786,-0.72786 1.42774,-2.1556 1.42774,-3.58333c0,-1.42774 -0.69988,-2.85547 -1.42774,-4.31119c-0.69987,-0.69988 -2.1556,-2.1276 -4.2832,-2.85547c-4.3112,-1.42774 -7.89453,-3.58333 -10.05013,-5.01107c-2.85547,-2.1556 -4.2832,-5.01106 -4.2832,-7.89453c0,-3.58333 1.42773,-6.43881 3.58333,-8.5944c2.85547,-2.1556 6.4388,-3.58333 10.02213,-3.58333c4.3112,0 7.16667,1.42774 10.02214,3.58333c2.1556,2.1556 3.58333,5.73893 3.58333,9.32226h-7.86654c0,-2.1556 -0.72786,-3.58333 -1.42773,-5.01106c-1.45573,-0.72787 -2.88347,-1.45573 -4.3112,-1.45573c-1.42774,0 -2.85547,0.72786 -3.58333,1.45573c-1.42774,1.42773 -1.42774,2.1276 -1.42774,4.2832c0,1.42774 0.69988,2.88347 1.42774,3.58333c0.72787,0.72786 2.85547,2.1556 5.01107,2.88347c4.31119,1.42773 7.16667,2.85547 9.32226,5.01106c2.1556,2.1556 2.85547,5.01107 2.85547,8.5944c0,3.58333 -1.42774,6.43881 -3.58333,8.5944c-2.1276,1.42774 -5.71094,2.88347 -9.29427,2.88347z"></path></g></g></svg>