<svg version="1.1" id="Layer_1" xmlns="http://www.w3.org/2000/svg" xmlns:xlink="http://www.w3.org/1999/xlink" x="0px" y="0px" viewBox="0 0 200 200" enable-background="new 0 0 200 200" xml:space="preserve">
<path fill="#F3D133" d="M100.75,18.175c45.326,0,82.076,36.75,82.076,82.075c0,45.326-36.75,82.076-82.076,82.076
	c-45.326,0-82.075-36.75-82.075-82.076C18.675,54.924,55.424,18.175,100.75,18.175z"/>
<path fill="#F58C31" d="M151.546,35.775c11.021,13.973,17.601,31.613,17.601,50.796c0,45.326-36.75,82.076-82.076,82.076
	c-19.183,0-36.823-6.579-50.79-17.601c15.029,19.05,38.319,31.28,64.469,31.28c45.326,0,82.076-36.75,82.076-82.076
	C182.826,74.101,170.596,50.81,151.546,35.775z"/>
<g>
	<path fill="#010101" d="M100.75,189.165c-49.03,0-88.915-39.889-88.915-88.915c0-15.776,4.188-31.276,12.11-44.825
		c1.906-3.26,6.084-4.365,9.357-2.452c3.26,1.907,4.358,6.095,2.452,9.358c-6.7,11.456-10.24,24.566-10.24,37.918
		c0,41.485,33.75,75.235,75.236,75.235s75.235-33.75,75.235-75.235s-33.75-75.236-75.235-75.236
		c-11.552,0-22.626,2.545-32.916,7.564c-3.383,1.653-7.487,0.25-9.147-3.149c-1.656-3.396-0.243-7.491,3.15-9.147
		c12.177-5.938,25.268-8.947,38.914-8.947c49.026,0,88.915,39.885,88.915,88.915C189.665,149.276,149.776,189.165,100.75,189.165z"
		/>
</g>
<g>
	<path fill="#010101" d="M42.059,49.714c-1.719,0-3.439-0.645-4.772-1.94c-2.705-2.635-2.762-6.963-0.127-9.671
		c1.86-1.914,3.82-3.741,5.848-5.474c2.875-2.454,7.187-2.107,9.645,0.762c2.452,2.875,2.111,7.19-0.761,9.645
		c-1.713,1.459-3.359,3-4.933,4.612C45.619,49.023,43.839,49.714,42.059,49.714z"/>
</g>
<g>
	<path fill="#010101" d="M100.75,165.227c-35.828,0-64.977-29.148-64.977-64.977s29.148-64.977,64.977-64.977
		s64.977,29.148,64.977,64.977S136.578,165.227,100.75,165.227z M100.75,48.953c-28.287,0-51.297,23.01-51.297,51.297
		s23.01,51.297,51.297,51.297c28.286,0,51.297-23.01,51.297-51.297S129.036,48.953,100.75,48.953z"/>
</g>
<path fill="#010101" d="M126.058,66.052H75.442c-4.662,0-8.436,2.177-8.436,6.839c0,4.676,3.78,6.84,8.436,6.84H93.91v6.105
	c-3.566,0.855-3.566,0.855-4.776,1.557c-3.587,2.063-6.766,5.016-8.656,8.756c-1.85,3.687-2.999,7.961-2.999,12.683
	c0,7.061,2.792,12.812,6.906,17.087c2.398,2.491,2.792,3.728,9.531,5.23v2.156c0,4.669,2.171,8.437,6.839,8.437
	s6.84-3.78,6.84-8.437v-2.144c0-0.061,1.169-0.074,1.349-0.134c2.719-0.915,5.443-2.164,7.314-3.727
	c1.844-1.55,3.434-3.233,4.375-5.011c0.961-1.822,1.542-3.593,1.542-5.27c0-1.65-0.548-3.199-1.764-4.582
	c-2.351-2.704-6.531-2.932-9.057-0.674c-0.814,0.728-1.502,1.749-2.163,2.886c-0.128,0.187-0.269,0.279-0.374,0.479
	c-1.003,1.764-2.165,3.054-3.395,3.868c-2.097,1.342-5.463,1.582-7.948,0.42c-1.049-0.467-1.923-1.168-2.672-2.117
	c-0.774-0.968-1.376-2.197-1.81-3.633c-0.434-1.476-0.661-3.16-0.661-4.99c0-3.812,0.828-6.812,2.478-8.91
	c1.529-1.964,3.506-2.925,6.045-2.925c1.763,0,3.192,0.387,4.261,1.129c1.203,0.841,2.411,2.157,3.614,4.001
	c0.153,0.214,0.293,0.373,0.446,0.567c0.701,0.895,1.35,1.61,1.964,2.09c2.312,1.844,6.132,1.403,8.456-0.773
	c1.383-1.283,2.125-2.939,2.125-4.816c0-1.63-0.535-3.374-1.57-5.15c-0.995-1.684-2.411-3.273-4.215-4.709
	c-1.816-1.443-4.822-2.618-7.334-3.506c-0.079-0.021-1.008-0.033-1.008-0.054v-5.877h18.469c4.661,0,8.429-2.164,8.429-6.839
	C134.494,68.229,130.72,66.052,126.058,66.052z"/>
</svg>
