<?xml version="1.0" encoding="utf-8"?>
<!-- Generator: Adobe Illustrator 16.0.0, SVG Export Plug-In . SVG Version: 6.00 Build 0)  -->
<!DOCTYPE svg PUBLIC "-//W3C//DTD SVG 1.1//EN" "http://www.w3.org/Graphics/SVG/1.1/DTD/svg11.dtd">
<svg version="1.1" id="Layer_1" xmlns="http://www.w3.org/2000/svg" xmlns:xlink="http://www.w3.org/1999/xlink" x="0px" y="0px"
	 width="300px" height="300px" viewBox="0 0 300 300" enable-background="new 0 0 300 300" xml:space="preserve">
<g>
	<g>
		<path fill="#3498DB" d="M265.35,150l7.775-24c5.812-17.962-2.275-37.5-19.088-46.087l-22.462-11.475L220.1,45.975
			c-8.587-16.812-28.125-24.913-46.087-19.087L150,34.65l-24-7.775c-17.962-5.812-37.5,2.275-46.087,19.087L68.425,68.425
			L45.962,79.913C29.15,88.5,21.062,108.038,26.875,126l7.775,24l-7.775,24c-5.812,17.963,2.275,37.5,19.087,46.088l22.462,11.475
			L79.9,254.025c8.587,16.812,28.125,24.912,46.087,19.087L150,265.35l24,7.775c17.963,5.812,37.5-2.275,46.088-19.088
			l11.475-22.462l22.463-11.476c16.812-8.587,24.912-28.125,19.087-46.087L265.35,150z"/>
	</g>
</g>
<path fill="#FFFFFF" d="M122.413,191.919L93.75,163.256c-4.875-4.875-4.875-12.8,0-17.675l0,0c4.875-4.875,12.8-4.875,17.675,0
	l19.825,19.825l57.325-57.325c4.875-4.875,12.8-4.875,17.675,0l0,0c4.875,4.875,4.875,12.8,0,17.675l-66.163,66.163
	C135.212,196.794,127.288,196.794,122.413,191.919L122.413,191.919z"/>
</svg>
