<svg version="1.1" xmlns="http://www.w3.org/2000/svg" xmlns:xlink="http://www.w3.org/1999/xlink" x="0px" y="0px" viewBox="0 0 1466 1466" enable-background="new 0 0 1466 1466" xml:space="preserve">
<g id="Layer_0">
	<rect x="-303" y="-391" fill="#FFFFFF" width="2160" height="2160"/>
</g>
<g id="Layer_1">
</g>
<g id="Layer_2">
	<g>
		<path fill="#7F85FC" d="M1327,709c-27.578,0-50-22.422-50-50s22.422-50,50-50s50,22.422,50,50S1354.578,709,1327,709z M1327,629
			c-16.562,0-30,13.476-30,30c0,16.562,13.438,30,30,30c16.523,0,30-13.438,30-30C1357,642.476,1343.523,629,1327,629z"/>
		<path fill="#F4D01E" d="M387,369c-27.578,0-50-22.422-50-50s22.422-50,50-50s50,22.422,50,50S414.578,369,387,369z M387,289
			c-16.562,0-30,13.476-30,30c0,16.562,13.438,30,30,30c16.524,0,30-13.438,30-30C417,302.476,403.524,289,387,289z"/>
		<path fill="#F4D01E" d="M1293.582,463.219c-2.148-1.153-12.656-6.934-15.508-8.496s-5.196-3.944-6.796-6.797
			c-1.599-2.853-7.307-13.398-8.479-15.508S1259.402,429,1257,429s-4.628,1.309-5.8,3.418s-6.88,12.655-8.479,15.508
			c-1.6,2.853-3.944,5.234-6.796,6.797s-13.359,7.343-15.508,8.496S1217,466.618,1217,469s1.27,4.628,3.418,5.781
			s12.656,6.934,15.508,8.496s5.196,3.944,6.796,6.797c1.599,2.853,7.307,13.398,8.479,15.508s3.397,3.418,5.8,3.418
			s4.628-1.309,5.8-3.418s6.88-12.655,8.479-15.508c1.6-2.853,3.944-5.234,6.796-6.797s13.359-7.343,15.508-8.496
			S1297,471.382,1297,469S1295.73,464.372,1293.582,463.219z"/>
		<path fill="#FF8C00" d="M253.582,383.219c-2.148-1.153-12.656-6.934-15.508-8.496s-5.196-3.944-6.795-6.797
			c-1.6-2.853-7.308-13.398-8.479-15.508c-1.172-2.109-3.397-3.418-5.8-3.418s-4.628,1.309-5.8,3.418
			c-1.171,2.109-6.879,12.655-8.479,15.508c-1.6,2.853-3.944,5.234-6.796,6.797s-13.359,7.343-15.508,8.496S177,386.618,177,389
			s1.27,4.628,3.418,5.781s12.656,6.934,15.508,8.496s5.196,3.944,6.796,6.797c1.599,2.853,7.307,13.398,8.479,15.508
			c1.172,2.109,3.397,3.418,5.8,3.418s4.628-1.309,5.8-3.418c1.171-2.109,6.879-12.655,8.479-15.508
			c1.599-2.853,3.944-5.234,6.795-6.797s13.359-7.343,15.508-8.496S257,391.382,257,389S255.73,384.372,253.582,383.219z"/>
		<path fill="#FF8C00" d="M814.441,1254.664c-1.599-0.879-9.493-5.215-11.642-6.387c-2.147-1.172-3.906-2.93-5.078-5.078
			c-1.172-2.147-5.468-10.079-6.366-11.642c-0.897-1.562-2.539-2.558-4.355-2.558s-3.458,0.996-4.356,2.558
			c-0.897,1.562-5.193,9.494-6.365,11.642c-1.173,2.148-2.931,3.906-5.079,5.078c-2.148,1.172-10.042,5.508-11.643,6.387
			c-1.599,0.878-2.558,2.539-2.558,4.336c0,1.796,0.958,3.458,2.558,4.336c1.6,0.878,9.494,5.214,11.643,6.386
			c2.147,1.172,3.905,2.93,5.079,5.078c1.171,2.148,5.467,10.08,6.365,11.642c0.898,1.562,2.54,2.559,4.356,2.559
			s3.458-0.996,4.355-2.559c0.898-1.562,5.194-9.493,6.366-11.642s2.931-3.906,5.078-5.078c2.148-1.172,10.043-5.508,11.642-6.386
			c1.601-0.878,2.559-2.54,2.559-4.336C817,1257.203,816.042,1255.542,814.441,1254.664z"/>
		<path fill="#7F85FC" d="M334.441,474.664c-1.599-0.879-9.494-5.215-11.642-6.387c-2.147-1.172-3.906-2.93-5.079-5.078
			c-1.171-2.147-5.467-10.079-6.366-11.642C310.458,449.996,308.816,449,307,449s-3.458,0.996-4.356,2.558
			c-0.897,1.562-5.193,9.494-6.365,11.642c-1.173,2.148-2.931,3.906-5.079,5.078c-2.148,1.172-10.042,5.508-11.643,6.387
			C277.958,475.542,277,477.203,277,479c0,1.796,0.958,3.458,2.558,4.336c1.6,0.877,9.494,5.214,11.643,6.385
			c2.147,1.172,3.905,2.93,5.079,5.079c1.171,2.148,5.467,10.08,6.365,11.642c0.898,1.562,2.54,2.559,4.356,2.559
			s3.458-0.996,4.355-2.559c0.898-1.562,5.194-9.493,6.366-11.642c1.172-2.149,2.931-3.906,5.079-5.079
			c2.148-1.171,10.042-5.508,11.642-6.385c1.6-0.877,2.559-2.54,2.559-4.336C337,477.203,336.042,475.542,334.441,474.664z"/>
		<path fill="#7F85FC" d="M514.441,114.664c-1.599-0.879-9.494-5.215-11.642-6.387c-2.147-1.172-3.906-2.93-5.079-5.078
			c-1.171-2.147-5.467-10.079-6.366-11.642C490.458,89.996,488.816,89,487,89s-3.458,0.996-4.356,2.558
			c-0.897,1.562-5.193,9.494-6.365,11.642c-1.173,2.148-2.931,3.906-5.079,5.078c-2.148,1.172-10.042,5.508-11.643,6.387
			C457.958,115.542,457,117.203,457,119c0,1.796,0.958,3.458,2.558,4.336c1.6,0.878,9.494,5.214,11.643,6.385
			c2.147,1.172,3.905,2.93,5.079,5.079c1.171,2.148,5.467,10.08,6.365,11.642c0.898,1.562,2.54,2.559,4.356,2.559
			s3.458-0.996,4.355-2.559c0.898-1.562,5.194-9.494,6.366-11.642c1.172-2.148,2.931-3.906,5.079-5.079
			c2.148-1.171,10.042-5.507,11.642-6.385c1.6-0.877,2.559-2.54,2.559-4.336C517,117.203,516.042,115.542,514.441,114.664z"/>
		<circle fill="#FF8C00" cx="1252" cy="304" r="15"/>
		<circle fill="#F4D01E" cx="232" cy="884" r="15"/>
		<circle fill="#7F85FC" cx="672" cy="1314" r="15"/>
		<circle fill="#F4D01E" cx="1407" cy="739" r="10"/>
		<circle fill="#FF8C00" cx="607" cy="59" r="10"/>
		<circle fill="#7F85FC" cx="147" cy="979" r="10"/>
		<circle fill="#F4D01E" cx="907" cy="1299" r="10"/>
		<circle fill="#7F85FC" cx="1107" cy="239" r="10"/>
		<circle fill="#FF8C00" cx="497" cy="1269" r="20"/>
	</g>
</g>
<g id="Layer_3">
	<g>
		<g>
			<path fill="#553FF2" d="M377,1069c0,66.274,53.726,120,120,120h600c66.274,0,120-53.726,120-120V629c0-66.274-53.726-120-120-120
				H497c-66.274,0-120,53.726-120,120V1069z"/>
			
				<path fill="none" stroke="#000000" stroke-width="40" stroke-linecap="round" stroke-linejoin="round" stroke-miterlimit="10" d="
				M1217,689v-60c0-66.274-53.726-120-120-120H497c-66.274,0-120,53.726-120,120v440c0,66.274,53.726,120,120,120h600
				c66.274,0,120-53.726,120-120V749"/>
		</g>
		<g>
			<path fill="#F4D01E" d="M1142.888,368.406L783.37,193.058c-19.855-9.684-43.802-1.439-53.487,18.417L537,606.944l431.421,210.417
				l192.884-395.469C1170.989,402.036,1162.743,378.09,1142.888,368.406z"/>
			<path fill="#FF8C00" d="M1161.305,421.893c9.685-19.856,1.438-43.803-18.417-53.487l-35.952-17.535
				c19.855,9.684,28.102,33.63,18.417,53.486L950.004,763.875L554.535,570.992L537,606.944l431.421,210.417L1161.305,421.893z"/>
			<path fill="#FFFFFF" d="M1161.305,421.893c9.685-19.856,1.438-43.803-18.417-53.487L783.37,193.058
				c-19.855-9.684-43.802-1.439-53.487,18.417L537,606.944l35.952,17.535l184.116-377.494c4.843-9.928,16.815-14.051,26.743-9.208
				l341.542,166.581c19.855,9.684,28.102,33.63,18.417,53.487L1161.305,421.893z"/>
			
				<rect x="543.743" y="577.735" transform="matrix(0.4384 -0.8988 0.8988 0.4384 -220.6243 842.4007)" fill="#FFE0B8" width="40" height="40"/>
			<path fill="#FFE0B8" d="M1161.305,421.893c9.685-19.856,1.438-43.803-18.417-53.487l-35.952-17.535
				c19.855,9.684,28.102,33.63,18.417,53.486c19.855,9.684,28.102,33.63,18.417,53.487L1161.305,421.893z"/>
			
				<path fill="none" stroke="#000000" stroke-width="40" stroke-linecap="round" stroke-linejoin="round" stroke-miterlimit="10" d="
				M896.518,782.292l157.813-323.566c-19.855-9.684-28.101-33.631-18.417-53.486l-215.71-105.209
				c-9.685,19.855-33.632,28.101-53.487,18.417L608.903,642.013"/>
			
				<path fill="none" stroke="#000000" stroke-width="40" stroke-linecap="round" stroke-linejoin="round" stroke-miterlimit="10" d="
				M842.59,755.99c19.369-39.712-5.17-91.53-54.81-115.741c-49.639-24.21-105.581-11.645-124.949,28.066"/>
			
				<path fill="none" stroke="#000000" stroke-width="40" stroke-linecap="round" stroke-linejoin="round" stroke-miterlimit="10" d="
				M1053.008,324.569L783.37,193.058c-19.855-9.684-43.802-1.439-53.487,18.417L537,606.944l431.421,210.417l192.884-395.469
				c9.685-19.856,1.438-43.803-18.417-53.487l-17.979-8.769"/>
		</g>
		<g>
			<path fill="#F4D01E" d="M967.183,333.047l-391.259-83.165c-21.608-4.593-42.849,9.2-47.442,30.81L437,711.077l469.511,99.797
				l91.481-430.385C1002.585,358.88,988.791,337.64,967.183,333.047z"/>
			<path fill="#FF8C00" d="M997.992,380.489c4.593-21.609-9.201-42.849-30.81-47.442l-39.126-8.316
				c21.608,4.593,35.402,25.833,30.81,47.442l-83.165,391.259l-430.385-91.481L437,711.077l469.511,99.797L997.992,380.489z"/>
			<path fill="#FFFFFF" d="M997.992,380.489c4.593-21.609-9.201-42.849-30.81-47.442l-391.259-83.165
				c-21.608-4.593-42.849,9.2-47.442,30.81L437,711.077l39.126,8.316l87.323-410.822c2.297-10.805,12.917-17.702,23.721-15.405
				l371.696,79.006c21.608,4.593,35.402,25.833,30.81,47.442L997.992,380.489z"/>
			
				<rect x="440.721" y="675.672" transform="matrix(0.2079 -0.9781 0.9781 0.2079 -315.5367 1001.6906)" fill="#FFE0B8" width="40.001" height="40"/>
			<path fill="#FFE0B8" d="M997.992,380.489c4.593-21.609-9.201-42.849-30.81-47.442l-39.126-8.316
				c21.608,4.593,35.402,25.833,30.81,47.442c21.608,4.593,35.402,25.833,30.81,47.442L997.992,380.489z"/>
			
				<path fill="none" stroke="#000000" stroke-width="40" stroke-linecap="round" stroke-linejoin="round" stroke-miterlimit="10" d="
				M828.259,794.241l74.849-352.133c-21.608-4.593-35.402-25.834-30.81-47.442l-234.755-49.899
				c-4.593,21.608-25.834,35.402-47.442,30.81L515.252,727.71"/>
			
				<path fill="none" stroke="#000000" stroke-width="40" stroke-linecap="round" stroke-linejoin="round" stroke-miterlimit="10" d="
				M769.57,781.767c9.186-43.218-27.16-87.561-81.182-99.043c-54.021-11.482-105.261,14.243-114.447,57.461"/>
			
				<path fill="none" stroke="#000000" stroke-width="40" stroke-linecap="round" stroke-linejoin="round" stroke-miterlimit="10" d="
				M595.49,254.042l-19.567-4.159c-21.608-4.593-42.849,9.2-47.442,30.81L437,711.077l469.511,99.797l91.481-430.385
				c4.593-21.609-9.201-42.849-30.81-47.442l-293.444-62.374"/>
		</g>
		<g>
			<path fill="#7F85FC" d="M1157,629c0-66.274-53.726-120-120-120H437c-66.274,0-120,53.726-120,120v440
				c0,66.274,53.726,120,120,120h600c66.274,0,120-53.726,120-120V629z"/>
			<path fill="#6762FF" d="M1037,509h-60c66.274,0,120,53.726,120,120v440c0,44.182-35.816,80-80,80H437
				c-66.274,0-120-53.726-120-120v40c0,66.274,53.726,120,120,120h600c66.274,0,120-53.726,120-120V629
				C1157,562.726,1103.274,509,1037,509z"/>
			<path fill="#FFFFFF" d="M1157,629c0-66.274-53.726-120-120-120H437c-66.274,0-120,53.726-120,120v440
				c0,66.274,53.726,120,120,120h60c-66.274,0-120-53.726-120-120V629c0-44.183,35.817-80,80-80h580c66.274,0,120,53.726,120,120
				V629z"/>
			<path fill="#CCDCFF" d="M1037,509h-60c37.77,0,71.456,17.455,93.453,44.731C1120.448,568.216,1157,614.337,1157,669v-40
				C1157,562.726,1103.274,509,1037,509z"/>
			<path fill="#CCDCFF" d="M403.546,1144.269C353.552,1129.783,317,1083.663,317,1029v40c0,66.274,53.726,120,120,120h60
				C459.23,1189,425.544,1171.545,403.546,1144.269z"/>
			
				<path fill="none" stroke="#000000" stroke-width="40" stroke-linecap="round" stroke-linejoin="round" stroke-miterlimit="10" d="
				M1157,688.998V629c0-66.274-53.726-120-120-120H857"/>
			
				<path fill="none" stroke="#000000" stroke-width="40" stroke-linecap="round" stroke-linejoin="round" stroke-miterlimit="10" d="
				M317,949v120c0,66.274,53.726,120,120,120h600c66.274,0,120-53.726,120-120V748.996"/>
			
				<line fill="none" stroke="#000000" stroke-width="40" stroke-linecap="round" stroke-linejoin="round" stroke-miterlimit="10" x1="317" y1="869.003" x2="317" y2="889.004"/>
			
				<path fill="none" stroke="#000000" stroke-width="40" stroke-linecap="round" stroke-linejoin="round" stroke-miterlimit="10" d="
				M777,509H437c-66.274,0-120,53.726-120,120v180"/>
			<g>
				
					<line fill="none" stroke="#000000" stroke-width="40" stroke-linecap="round" stroke-linejoin="round" stroke-miterlimit="10" stroke-dasharray="20,80" x1="1097" y1="1069" x2="1077" y2="1069"/>
				
					<line fill="none" stroke="#000000" stroke-width="40" stroke-linecap="round" stroke-linejoin="round" stroke-miterlimit="10" stroke-dasharray="20,80" x1="997" y1="1069" x2="977" y2="1069"/>
				
					<line fill="none" stroke="#000000" stroke-width="40" stroke-linecap="round" stroke-linejoin="round" stroke-miterlimit="10" stroke-dasharray="20,80" x1="897" y1="1069" x2="877" y2="1069"/>
				
					<line fill="none" stroke="#000000" stroke-width="40" stroke-linecap="round" stroke-linejoin="round" stroke-miterlimit="10" stroke-dasharray="20,80" x1="797" y1="1069" x2="777" y2="1069"/>
				
					<line fill="none" stroke="#000000" stroke-width="40" stroke-linecap="round" stroke-linejoin="round" stroke-miterlimit="10" stroke-dasharray="20,80" x1="697" y1="1069" x2="677" y2="1069"/>
				
					<line fill="none" stroke="#000000" stroke-width="40" stroke-linecap="round" stroke-linejoin="round" stroke-miterlimit="10" stroke-dasharray="20,80" x1="597" y1="1069" x2="577" y2="1069"/>
				
					<line fill="none" stroke="#000000" stroke-width="40" stroke-linecap="round" stroke-linejoin="round" stroke-miterlimit="10" stroke-dasharray="20,80" x1="497" y1="1069" x2="477" y2="1069"/>
				
					<line fill="none" stroke="#000000" stroke-width="40" stroke-linecap="round" stroke-linejoin="round" stroke-miterlimit="10" stroke-dasharray="20,80" x1="397" y1="1069" x2="377" y2="1069"/>
			</g>
			<g>
				
					<line fill="none" stroke="#000000" stroke-width="40" stroke-linecap="round" stroke-linejoin="round" stroke-miterlimit="10" stroke-dasharray="20,80" x1="1097" y1="629" x2="1077" y2="629"/>
				
					<line fill="none" stroke="#000000" stroke-width="40" stroke-linecap="round" stroke-linejoin="round" stroke-miterlimit="10" stroke-dasharray="20,80" x1="997" y1="629" x2="977" y2="629"/>
				
					<line fill="none" stroke="#000000" stroke-width="40" stroke-linecap="round" stroke-linejoin="round" stroke-miterlimit="10" stroke-dasharray="20,80" x1="897" y1="629" x2="877" y2="629"/>
				
					<line fill="none" stroke="#000000" stroke-width="40" stroke-linecap="round" stroke-linejoin="round" stroke-miterlimit="10" stroke-dasharray="20,80" x1="797" y1="629" x2="777" y2="629"/>
				
					<line fill="none" stroke="#000000" stroke-width="40" stroke-linecap="round" stroke-linejoin="round" stroke-miterlimit="10" stroke-dasharray="20,80" x1="697" y1="629" x2="677" y2="629"/>
				
					<line fill="none" stroke="#000000" stroke-width="40" stroke-linecap="round" stroke-linejoin="round" stroke-miterlimit="10" stroke-dasharray="20,80" x1="597" y1="629" x2="577" y2="629"/>
				
					<line fill="none" stroke="#000000" stroke-width="40" stroke-linecap="round" stroke-linejoin="round" stroke-miterlimit="10" stroke-dasharray="20,80" x1="497" y1="629" x2="477" y2="629"/>
				
					<line fill="none" stroke="#000000" stroke-width="40" stroke-linecap="round" stroke-linejoin="round" stroke-miterlimit="10" stroke-dasharray="20,80" x1="397" y1="629" x2="377" y2="629"/>
			</g>
			<g>
				
					<line fill="none" stroke="#FFFFFF" stroke-width="40" stroke-linecap="round" stroke-linejoin="round" stroke-miterlimit="10" x1="437" y1="989" x2="437" y2="789"/>
				
					<line fill="none" stroke="#FFFFFF" stroke-width="40" stroke-linecap="round" stroke-linejoin="round" stroke-miterlimit="10" x1="437" y1="729" x2="437" y2="709"/>
			</g>
		</g>
		<g>
			<path fill="#7F85FC" d="M1217,749h-200c-33.137,0-60,26.863-60,60v80c0,33.137,26.863,60,60,60h200c33.137,0,60-26.863,60-60v-80
				C1277,775.863,1250.137,749,1217,749z"/>
			<path fill="#6762FF" d="M1217,749h-60c33.137,0,60,26.863,60,60v80c0,33.137-26.863,60-60,60h60c33.137,0,60-26.863,60-60v-80
				C1277,775.863,1250.137,749,1217,749z"/>
			<path fill="#FFFFFF" d="M997,889v-80c0-33.137,26.863-60,60-60h-40c-33.137,0-60,26.863-60,60v80c0,33.137,26.863,60,60,60h40
				C1023.863,949,997,922.137,997,889z"/>
			
				<path fill="none" stroke="#000000" stroke-width="40" stroke-linecap="round" stroke-linejoin="round" stroke-miterlimit="10" d="
				M1217,749h-200c-33.137,0-60,26.863-60,60v80c0,33.137,26.863,60,60,60h200c33.137,0,60-26.863,60-60v-80
				C1277,775.863,1250.137,749,1217,749z"/>
			<circle cx="1057" cy="849" r="40"/>
		</g>
	</g>
</g>
</svg>
