<svg version="1.1" xmlns="http://www.w3.org/2000/svg" xmlns:xlink="http://www.w3.org/1999/xlink" x="0px" y="0px" viewBox="0 0 1512 512" enable-background="new 0 0 1512 512" xml:space="preserve">
<g id="Layer_2">
</g>
<g id="Layer_1">
	<g>
		<polygon fill="outline" points="1249.343,63.878 1149.682,211.354 1049.444,63.878 948.055,63.878 948.055,448.122 
			1070.759,448.122 1070.759,309.861 1149.682,425.079 1228.028,309.861 1228.028,448.122 1350.732,448.122 1350.732,63.878"/>
		<polygon fill="outline" points="575.946,448.122 725.841,448.122 755.972,382.5 786.104,448.122 933.055,448.122 755.972,63.878"/>
		<g>
			<polygon fill="outline" points="589.63,270.291 657.712,63.878 527.519,63.878 483.161,229.89 438.803,63.878 354.696,63.878 
				310.337,229.89 265.979,63.878 135.786,63.878 218.576,314.882"/>
			<polygon fill="outline" points="246.19,398.604 262.523,448.122 358.152,448.122 396.749,448.122 435.346,448.122 
				530.975,448.122 559.735,360.924"/>
		</g>
		<circle fill="outline" cx="268.5" cy="350.5" r="32"/>
		<circle fill="outline" cx="404.963" cy="334.5" r="32"/>
		<circle fill="outline" cx="537.5" cy="318.5" r="32"/>
	</g>
</g>
</svg>
