<svg version="1.1" id="Layer_1" xmlns="http://www.w3.org/2000/svg" xmlns:xlink="http://www.w3.org/1999/xlink" x="0px" y="0px" viewBox="0 0 200 200" enable-background="new 0 0 200 200" xml:space="preserve">
<g id="Layer_1_1_">
	<g>
		<polygon fill="#FFFFFF" points="128.829,38.689 133.028,60.391 111.275,56.243 102.372,65.146 136.113,98.888 146.889,88.113 
			134.748,75.972 151.796,79.159 148.558,62.162 160.699,74.303 171.474,63.527 137.732,29.786 		"/>
		<polygon fill="#FFFFFF" points="103.438,131.563 116.601,118.4 113.484,109.992 121.893,113.109 134.797,100.205 85.505,82.014 		
			"/>
		<g>
			<polygon fill="#FFFFFF" points="89.024,114.746 76.877,90.642 65.444,102.074 76.127,120.548 57.654,109.865 50.269,117.25 
				60.951,135.724 42.478,125.041 31.045,136.474 60.356,151.244 			"/>
			<polygon fill="#FFFFFF" points="70.133,156.172 75.916,159.086 84.313,150.688 87.703,147.299 91.092,143.909 99.489,135.513 
				94.357,125.33 			"/>
		</g>
		<circle fill="#FFFFFF" cx="67.868" cy="149.988" r="3.974"/>
		<circle fill="#FFFFFF" cx="78.446" cy="136.6" r="3.974"/>
		<circle fill="#FFFFFF" cx="88.68" cy="123.557" r="3.974"/>
	</g>
</g>
</svg>
